<?xml version="1.0" standalone="no"?>
<!DOCTYPE svg PUBLIC "-//W3C//DTD SVG 20010904//EN"
 "http://www.w3.org/TR/2001/REC-SVG-20010904/DTD/svg10.dtd">
<svg version="1.0" xmlns="http://www.w3.org/2000/svg"
 width="1098.000000pt" height="699.000000pt" viewBox="0 0 1098.000000 699.000000"
 preserveAspectRatio="xMidYMid meet">
<metadata>
Created by potrace 1.16, written by Peter Selinger 2001-2019
</metadata>
<g transform="translate(0.000000,699.000000) scale(0.100000,-0.100000)"
fill="#000000" stroke="none">
<path d="M515 6980 c-3 -4 -22 -11 -42 -15 -21 -3 -49 -9 -62 -12 -21 -5 -23
-3 -17 13 6 16 4 16 -17 -4 -16 -15 -36 -22 -65 -22 -23 0 -42 -4 -42 -10 0
-5 9 -10 21 -10 12 0 17 -4 13 -11 -8 -13 -81 -4 -101 13 -10 8 -17 6 -27 -7
-13 -18 -25 -21 -128 -32 l-48 -5 0 -58 c0 -33 5 -62 10 -65 6 -4 8 -11 5 -16
-10 -16 7 -10 20 7 10 14 13 14 26 1 18 -17 79 -17 79 1 0 7 13 12 30 12 19 0
29 -5 27 -12 -1 -9 15 -13 58 -13 51 0 60 3 57 17 -4 27 17 31 24 3 4 -18 13
-25 30 -25 15 0 24 6 24 15 0 8 -7 15 -15 15 -8 0 -15 6 -15 13 0 14 75 21
128 12 32 -6 43 -28 20 -39 -7 -4 3 -4 22 -1 19 3 36 10 38 15 2 5 9 7 17 4 7
-3 16 -1 19 5 4 6 13 8 21 4 8 -3 26 -2 40 1 22 6 24 9 15 26 -12 21 -1 27 17
9 12 -12 73 -19 73 -9 0 12 -25 30 -41 30 -10 0 -21 5 -25 11 -5 9 1 10 20 5
25 -6 27 -5 24 29 -2 39 -2 39 -28 25 -10 -5 -85 -13 -167 -16 l-148 -6 -3 25
c-1 14 2 28 7 32 17 10 131 22 131 13 0 -4 -5 -8 -11 -8 -5 0 -7 -4 -4 -10 7
-11 64 -14 89 -4 12 5 13 9 3 25 -10 16 -9 21 3 29 10 6 -3 9 -43 9 -31 -1
-59 -5 -62 -9z"/>
<path d="M718 6978 c13 -13 17 -14 47 -17 10 -1 15 -12 15 -33 0 -18 5 -40 10
-48 6 -10 10 -11 10 -2 0 6 11 12 25 12 20 0 25 -5 25 -23 0 -32 34 -61 70
-60 48 2 50 2 44 17 -3 8 -1 17 5 21 6 3 175 8 376 10 l366 4 -7 -22 c-3 -12
-13 -29 -20 -38 -8 -8 -14 -22 -14 -29 0 -8 7 -4 19 9 12 14 25 19 37 14 13
-5 16 -3 11 10 -4 10 -1 17 6 17 8 0 8 3 -2 9 -8 5 -9 11 -3 15 6 3 13 -3 17
-14 3 -11 11 -20 16 -20 5 0 10 -26 10 -57 1 -32 3 -50 6 -40 10 39 23 13 23
-49 0 -36 4 -63 9 -60 5 3 11 -1 15 -9 7 -18 0 -22 -43 -27 -21 -2 -36 2 -38
10 -3 7 5 12 21 12 19 0 26 5 26 20 0 18 -3 19 -21 10 -19 -11 -20 -9 -17 17
2 20 8 28 21 27 14 -2 15 1 6 13 -10 12 -15 9 -32 -16 -21 -34 -42 -38 -70
-16 -18 13 -122 13 -224 0 -23 -2 -37 2 -45 13 -37 49 -175 129 -204 118 -12
-5 -14 -15 -8 -52 l7 -47 -44 7 c-57 9 -147 17 -134 12 6 -2 23 -7 38 -10 15
-4 25 -11 22 -16 -7 -11 -68 -14 -78 -4 -3 4 -26 8 -49 10 -52 3 -187 24 -208
32 -8 3 -19 4 -25 2 -5 -2 -173 -2 -372 -1 l-363 2 0 -701 c0 -660 1 -700 18
-701 9 0 40 -2 67 -4 28 -1 71 -8 98 -14 38 -10 47 -17 47 -34 0 -12 -4 -28
-9 -36 -8 -12 -15 -9 -37 17 -37 42 -52 41 -50 -3 1 -30 5 -37 26 -41 14 -3
31 -7 37 -10 14 -4 18 -170 5 -191 -4 -7 -28 -11 -57 -10 -50 2 -50 2 -48 -28
l2 -30 -11 31 c-6 20 -22 37 -44 48 -44 20 -42 21 -40 -9 0 -14 6 -25 12 -25
10 0 37 -44 38 -63 1 -9 95 -57 113 -57 7 0 13 -7 13 -15 0 -8 -9 -15 -20 -15
-17 0 -20 -7 -20 -40 0 -22 -4 -40 -10 -40 -5 0 -7 7 -3 16 3 9 0 19 -6 24 -7
4 -14 16 -15 26 -1 11 -23 30 -51 45 -30 17 -42 28 -32 30 14 4 13 7 -4 28
-19 23 -19 16 -19 -632 0 -515 3 -657 12 -661 11 -5 11 -7 0 -12 -9 -4 -12
-375 -12 -1805 l0 -1799 1243 3 c683 2 1259 8 1281 12 27 5 37 4 32 -3 -5 -8
10 -11 48 -10 39 1 53 5 49 14 -2 7 1 22 7 35 11 19 10 21 -4 16 -9 -4 -16 -3
-17 1 0 4 -2 15 -4 25 -2 9 1 15 6 11 5 -3 7 -9 4 -14 -3 -4 4 -10 14 -13 12
-3 27 7 45 29 15 19 35 34 44 34 14 0 15 -2 2 -10 -12 -7 -11 -10 5 -16 11 -4
25 -10 30 -12 6 -3 3 3 -5 14 -8 10 -10 16 -6 12 5 -4 15 -3 23 4 7 6 17 8 20
4 4 -4 3 -10 -3 -14 -15 -10 -25 -42 -14 -42 6 0 10 6 10 13 0 7 10 13 23 14
19 2 20 0 7 -10 -9 -7 -16 -23 -16 -36 0 -14 -6 -27 -13 -29 -9 -3 -11 2 -7
15 5 15 -1 23 -21 33 -30 15 -96 24 -74 10 8 -4 10 -13 7 -19 -4 -6 -12 -9
-17 -6 -5 4 -9 2 -9 -3 0 -11 69 -38 87 -34 7 2 13 -2 13 -9 0 -8 -15 -10 -50
-6 -27 3 -51 3 -54 -1 -7 -12 93 -13 115 -2 10 6 19 7 19 2 0 -5 14 -9 32 -10
22 0 28 2 18 8 -11 7 -11 12 -2 23 7 8 10 22 6 31 -3 9 0 23 7 32 10 13 10 17
-1 24 -8 5 -11 12 -7 17 4 4 17 2 27 -5 16 -10 18 -9 14 3 -7 18 12 20 23 2
12 -19 43 -18 40 2 -1 9 -6 21 -10 28 -4 6 -4 19 0 30 6 16 5 17 -12 3 -11 -9
-16 -10 -11 -3 10 17 -35 18 -52 1 -6 -6 -28 -17 -49 -24 l-38 -13 25 19 c14
11 40 25 58 31 18 6 30 15 27 20 -10 15 7 10 27 -8 10 -9 18 -11 18 -5 0 6 7
9 15 6 10 -4 13 -13 10 -25 -5 -13 -1 -19 10 -19 12 0 15 6 10 19 -5 18 -2 19
28 14 19 -3 37 -1 40 4 3 5 -3 10 -14 11 -44 4 -49 6 -49 19 0 7 5 13 10 13 6
0 10 6 9 13 -3 27 1 42 9 30 4 -7 17 -10 30 -6 12 3 19 9 16 14 -3 5 2 9 11 9
9 0 14 -3 12 -7 -3 -5 -1 -17 4 -28 6 -17 8 -17 8 -2 1 9 6 17 12 17 6 0 8
-11 4 -28 -7 -34 15 -58 42 -47 17 6 17 7 0 16 -9 6 -22 7 -27 4 -15 -9 -12
11 4 24 18 15 27 49 15 57 -5 3 -9 -2 -9 -12 0 -13 -3 -14 -15 -4 -17 14 -21
35 -5 25 6 -3 10 -2 10 2 0 5 10 14 21 22 22 13 22 12 16 -41 -3 -29 -4 -47
-1 -40 7 14 34 16 34 2 0 -5 7 -10 15 -10 20 0 19 -25 -2 -46 -16 -15 -16 -17
0 -29 9 -7 17 -20 17 -29 0 -10 4 -15 9 -12 5 3 8 18 8 33 0 16 -2 22 -4 15
-3 -6 -9 -10 -13 -7 -12 7 -1 36 20 55 8 8 15 25 14 37 -1 15 3 20 13 16 11
-4 14 1 11 23 -2 19 -10 30 -22 32 -12 3 -16 0 -11 -8 4 -6 -1 -17 -11 -25
-15 -11 -16 -16 -6 -28 11 -13 10 -15 -7 -10 -12 3 -18 9 -15 14 3 5 -2 6 -11
2 -15 -5 -15 -3 -4 15 7 11 17 18 21 16 4 -3 8 0 8 6 0 6 -6 10 -12 9 -33 -4
-41 1 -28 16 11 13 15 13 22 3 7 -10 11 -10 14 -1 3 6 16 9 30 7 17 -3 24 0
24 11 0 8 4 15 10 15 5 0 7 8 4 18 -4 13 -3 13 7 -2 9 -15 9 -21 1 -24 -16 -5
-5 -22 14 -22 8 0 14 10 14 24 0 19 4 23 19 19 11 -3 18 -10 17 -16 -2 -7 -1
-9 1 -4 3 4 9 4 14 1 6 -3 5 -11 -2 -20 -10 -12 -9 -13 4 -9 8 4 18 2 22 -4 3
-6 0 -11 -8 -11 -8 0 -17 -6 -20 -13 -3 -7 -18 -13 -33 -12 -16 0 -27 5 -24
10 3 6 8 9 13 7 4 -1 7 2 7 8 0 15 -30 12 -31 -2 -1 -7 0 -25 1 -40 1 -15 -5
-30 -15 -35 -13 -8 -12 -11 10 -23 14 -7 25 -21 25 -31 0 -9 7 -19 15 -23 8
-3 15 -1 15 5 0 6 4 8 10 4 5 -3 7 -12 3 -21 -3 -9 5 -6 20 8 19 17 23 26 15
35 -7 9 -3 15 18 23 19 8 24 14 16 22 -6 6 -8 18 -6 27 2 9 -3 3 -11 -14 l-16
-30 4 28 c2 15 1 27 -3 27 -4 0 -11 7 -14 16 -4 12 -2 15 9 11 23 -10 29 12 8
35 -17 20 -17 21 0 15 11 -4 16 -3 12 3 -4 6 -14 9 -23 8 -10 -2 -16 3 -14 10
1 8 -2 11 -8 7 -5 -3 -10 -2 -10 3 0 14 94 9 103 -6 11 -17 24 -15 24 5 0 20
-20 43 -37 43 -6 0 -8 5 -5 10 3 6 1 10 -4 10 -6 0 -11 -5 -11 -11 0 -5 -5 -7
-10 -4 -13 8 -13 55 0 55 5 0 7 -7 4 -15 -5 -12 -2 -13 17 -7 36 14 33 26 -13
45 -24 10 -32 15 -18 11 14 -3 49 -8 79 -9 29 -2 58 -8 64 -14 8 -8 7 -11 -4
-11 -22 -1 20 -23 49 -26 13 -1 31 -12 39 -23 8 -12 21 -21 29 -21 8 0 17 -7
20 -15 4 -8 10 -12 15 -9 5 3 9 -2 9 -10 0 -8 -7 -16 -17 -18 -14 -3 -14 -5 2
-18 11 -8 16 -10 12 -4 -4 7 0 14 8 18 12 4 13 11 5 32 -14 35 -4 44 11 11 10
-21 15 -24 30 -17 14 8 17 6 16 -10 -1 -12 -7 -18 -14 -16 -7 3 -13 -1 -13 -9
0 -13 8 -17 30 -17 3 0 16 3 30 7 23 7 23 7 7 -9 -22 -23 -22 -30 2 -23 14 3
18 1 14 -9 -3 -10 0 -12 10 -8 8 3 18 1 22 -5 10 -17 55 -13 55 5 0 8 5 12 10
9 6 -4 8 -11 5 -16 -3 -5 1 -6 9 -3 9 3 16 2 16 -4 0 -5 10 -13 23 -17 12 -3
17 -9 10 -11 -7 -3 -22 0 -34 7 -17 9 -24 9 -27 0 -2 -6 -10 -11 -18 -11 -8 0
-14 -4 -14 -10 0 -5 11 -10 25 -10 14 0 25 -6 25 -12 1 -8 6 -6 14 4 19 26 29
22 22 -7 -5 -18 -2 -25 8 -25 8 0 20 -8 26 -17 10 -16 11 -16 5 2 -5 16 1 13
27 -11 35 -34 63 -33 63 1 0 14 7 21 25 22 14 1 19 0 12 -3 -10 -4 -10 -9 -2
-19 8 -10 8 -20 -3 -37 -13 -20 -12 -25 4 -40 15 -14 18 -14 23 -2 3 9 1 12
-4 9 -18 -11 -10 11 12 35 15 16 18 25 10 28 -7 2 -12 12 -12 23 0 11 -7 20
-17 21 -10 0 -23 2 -29 2 -6 1 -19 7 -28 15 -8 7 -22 11 -31 7 -8 -3 -14 -2
-13 2 1 4 -3 17 -10 29 -11 19 -10 22 3 17 14 -6 19 5 16 34 -4 26 28 11 34
-17 5 -22 11 -28 25 -24 14 4 19 -1 22 -23 3 -29 28 -47 28 -21 0 9 -6 17 -12
20 -7 2 -9 8 -5 13 5 5 16 0 26 -12 17 -21 61 -39 61 -24 0 13 -26 30 -35 22
-5 -4 -5 -1 -1 6 4 7 1 15 -8 18 -9 3 -16 11 -16 17 0 5 8 3 18 -6 24 -22 31
-21 25 3 -4 15 0 20 13 20 15 0 16 -2 5 -9 -9 -6 -10 -11 -3 -15 6 -4 9 -13 6
-21 -4 -10 0 -12 15 -8 12 3 21 9 21 14 0 5 6 6 14 3 12 -4 13 0 7 23 -5 18
-15 29 -28 31 -12 2 -24 10 -27 19 -5 13 -4 14 8 4 8 -7 20 -10 26 -6 5 3 10
2 10 -3 0 -5 9 -12 20 -15 16 -4 18 -9 10 -36 -5 -18 -5 -33 1 -36 5 -4 9 -1
9 5 0 6 4 9 9 6 13 -8 1 -46 -14 -46 -7 0 -15 9 -18 20 -5 20 -27 28 -27 10 0
-5 -7 -7 -16 -3 -12 4 -15 2 -12 -8 3 -8 9 -14 14 -15 5 0 20 -5 32 -10 21 -9
22 -12 9 -23 -9 -7 -18 -8 -21 -2 -3 5 -15 7 -26 4 -11 -3 -20 0 -20 6 0 6 -8
11 -18 11 -10 0 -23 5 -29 11 -8 8 -13 8 -17 0 -4 -6 -2 -11 4 -11 6 0 21 -11
34 -25 18 -19 25 -22 35 -12 9 9 14 9 21 -3 7 -11 4 -17 -8 -22 -9 -4 -11 -7
-4 -7 6 -1 12 -7 12 -15 0 -7 8 -16 18 -20 9 -3 23 -9 31 -12 10 -5 13 -1 8
15 -3 11 -1 19 4 15 15 -9 10 -30 -15 -59 l-23 -27 2 24 c2 17 -2 24 -16 25
-10 1 -21 -2 -24 -8 -4 -5 1 -9 9 -9 9 0 16 -9 16 -20 0 -13 7 -20 19 -20 11
0 23 9 26 20 7 24 42 27 42 4 0 -10 -7 -14 -19 -11 -10 3 -18 1 -18 -4 0 -5 4
-9 9 -9 4 0 6 -12 4 -27 -4 -22 -2 -25 6 -13 9 12 12 13 20 1 7 -10 10 -11 16
-1 5 8 1 18 -10 27 -15 10 -15 13 -4 13 8 0 20 -5 27 -12 7 -7 12 -8 12 -4 0
5 6 4 13 -2 10 -9 17 -6 29 8 9 10 14 21 11 24 -11 10 -43 6 -43 -5 0 -6 -15
4 -33 23 -28 28 -30 35 -18 45 19 17 39 17 23 1 -17 -17 -15 -28 4 -28 8 0 13
4 9 9 -3 6 3 14 12 20 10 6 12 11 6 11 -18 0 -16 25 3 44 18 18 39 22 28 4 -4
-7 -3 -8 4 -4 9 5 9 13 2 26 -14 27 -12 34 5 16 8 -8 15 -28 15 -45 0 -16 5
-33 10 -36 6 -3 10 -11 10 -17 0 -6 -7 -5 -17 3 -15 12 -16 12 -10 -5 6 -16 4
-17 -18 -12 -25 6 -31 0 -17 -19 13 -19 86 0 78 20 -2 7 4 15 15 18 12 3 19 0
19 -9 0 -8 9 -14 20 -14 11 0 23 -7 27 -15 7 -19 -5 -34 -15 -19 -9 14 -52 25
-52 14 0 -5 -3 -15 -6 -23 -6 -16 11 -18 33 -4 6 4 14 3 18 -3 3 -5 3 -10 -1
-10 -4 0 3 -9 16 -20 17 -15 19 -20 7 -20 -8 0 -18 6 -20 13 -4 8 -6 6 -6 -4
-1 -13 13 -16 83 -18 82 -1 118 11 75 24 -13 4 -25 2 -29 -5 -10 -16 -55 -5
-82 20 -19 17 -19 20 -5 34 22 22 27 20 27 -9 0 -14 3 -25 8 -26 4 0 14 -2 23
-4 12 -2 15 4 13 21 -3 30 6 64 16 64 9 0 8 -19 -2 -35 -4 -6 5 -22 19 -35 18
-18 28 -21 31 -12 3 10 7 10 18 1 11 -9 11 -15 3 -25 -9 -11 -6 -14 19 -14 17
0 33 6 35 13 4 9 8 9 15 -2 5 -7 15 -12 23 -9 8 3 5 11 -12 26 -21 21 -25 21
-35 7 -14 -19 -27 -6 -14 15 4 7 6 19 3 27 -3 7 2 13 11 13 9 0 16 -7 16 -16
0 -8 4 -13 9 -9 6 3 15 -3 21 -12 10 -16 11 -16 6 -1 -3 10 0 20 5 24 7 4 2
15 -10 28 -12 12 -18 25 -15 29 4 3 3 14 0 24 -6 15 -8 15 -17 3 -7 -11 -8 -9
-6 10 2 14 12 27 22 29 14 2 17 -2 12 -18 -3 -12 -2 -21 3 -21 4 0 5 -11 2
-25 -2 -14 0 -25 6 -25 5 0 18 -12 27 -27 16 -24 16 -26 0 -20 -11 5 -15 3
-13 -5 8 -24 35 -20 35 4 1 49 2 51 18 38 8 -7 12 -16 9 -21 -3 -5 1 -7 8 -4
9 4 13 -5 14 -30 0 -33 -1 -35 -28 -33 -16 1 -34 8 -40 15 -13 16 -29 7 -21
-12 4 -12 26 -15 99 -15 87 0 94 1 94 20 0 11 5 20 11 20 6 0 9 -6 6 -14 -10
-24 57 -38 66 -13 4 9 8 9 15 -2 7 -10 11 -5 14 18 2 17 1 31 -3 31 -5 0 -13
9 -18 19 -9 16 -8 18 9 14 11 -3 23 -9 26 -14 9 -15 24 -10 18 6 -4 10 0 15
14 15 15 0 19 -5 15 -20 -3 -11 0 -20 6 -20 6 0 11 6 12 13 0 6 5 -3 10 -22
13 -42 7 -48 -20 -20 -22 24 -42 19 -22 -5 10 -12 8 -15 -11 -19 -13 -3 -3 -4
21 -3 25 2 47 8 49 14 2 7 10 12 18 12 8 0 14 6 14 14 0 8 7 17 15 20 13 5 24
-8 40 -50 0 -1 10 -5 23 -8 16 -5 22 -3 22 7 0 8 -10 18 -22 22 -14 4 -18 8
-10 12 6 2 10 9 6 14 -3 5 -1 9 3 9 5 0 13 -10 18 -22 6 -13 18 -22 28 -22 20
2 23 -12 4 -19 -8 -4 -7 -6 3 -6 9 -1 23 11 32 26 10 16 18 22 18 15 0 -7 4
-11 9 -8 5 3 8 -2 7 -12 -1 -18 15 -20 48 -6 12 4 17 4 13 -2 -3 -6 9 -11 29
-12 24 -2 34 2 34 12 0 19 -17 30 -22 14 -2 -6 -10 -8 -17 -4 -7 5 -9 12 -3
19 13 17 11 47 -4 47 -6 0 -14 7 -18 15 -6 18 5 20 21 4 13 -13 36 -3 28 12
-4 5 -17 9 -30 9 -26 0 -42 16 -23 23 10 3 10 7 -1 20 -8 10 -9 17 -3 17 6 0
16 -8 21 -17 9 -16 12 -16 21 -3 6 8 8 26 5 38 -3 13 -2 21 3 18 13 -8 21
-105 12 -138 -8 -25 -4 -29 37 -54 27 -16 54 -24 69 -21 13 2 21 0 18 -4 -8
-14 44 -11 67 4 17 9 23 9 26 0 3 -7 11 -13 19 -13 11 0 12 4 4 19 -14 26 -13
31 6 31 8 0 12 -5 9 -10 -3 -6 0 -16 8 -24 10 -11 51 -14 175 -14 89 1 159 5
156 9 -3 5 0 9 5 9 6 0 11 -4 11 -10 0 -5 7 -10 16 -10 8 0 13 4 10 9 -9 14
25 23 40 10 7 -6 35 -12 61 -13 26 -2 38 -1 26 1 -25 5 -30 18 -10 26 8 4 9 8
1 14 -6 4 -13 16 -17 26 -4 10 -11 16 -16 13 -9 -6 -38 52 -33 67 1 4 -4 7
-12 7 -7 0 -26 6 -41 14 -23 12 -24 15 -8 18 30 7 73 -12 74 -33 1 -10 3 -23
4 -29 1 -5 3 -14 4 -19 0 -5 10 -11 21 -14 11 -3 23 -13 27 -24 15 -38 55 -67
99 -71 l42 -3 -13 38 c-9 27 -19 38 -34 39 -36 2 -71 44 -36 44 7 0 18 -8 24
-17 5 -10 13 -15 17 -11 4 4 13 0 20 -10 13 -16 13 -16 14 1 0 18 20 25 20 6
0 -5 4 -8 9 -4 5 3 11 -9 13 -27 2 -22 9 -34 20 -36 13 -2 16 1 12 12 -4 11 0
14 15 13 13 -1 24 -10 27 -24 6 -23 24 -32 24 -13 0 14 26 13 68 -2 30 -11 35
-11 48 7 12 17 19 14 15 -7 0 -5 6 -8 14 -8 9 0 12 6 9 15 -8 21 13 19 26 -2
11 -17 11 -17 6 0 -3 10 -6 21 -6 23 0 2 -7 4 -15 4 -8 0 -15 7 -15 15 0 26
-2 30 -42 59 -23 17 -37 34 -34 42 3 8 -4 19 -15 25 -11 6 -18 13 -15 16 8 8
47 -28 41 -38 -3 -4 0 -11 6 -15 8 -4 9 -3 5 4 -4 7 -1 12 8 12 8 0 19 -6 23
-13 9 -15 74 -47 94 -47 8 0 4 8 -9 20 -12 11 -26 20 -32 20 -6 0 -8 4 -5 10
4 6 16 4 31 -6 22 -15 29 -13 25 9 0 4 3 7 9 7 14 0 13 -13 -2 -28 -10 -10
-10 -15 2 -22 29 -18 35 -10 31 45 -1 18 -1 18 9 3 6 -10 18 -22 28 -28 16
-10 15 -10 -2 -8 -10 2 -20 -1 -22 -7 -5 -13 42 -35 74 -35 13 0 20 -4 17 -10
-3 -5 -16 -10 -28 -10 -20 0 -20 0 -1 -14 11 -9 23 -11 28 -6 9 9 46 -5 56
-21 9 -14 70 -23 70 -11 0 6 -5 14 -12 18 -7 5 -8 2 -3 -7 5 -8 4 -11 -1 -6
-5 5 -10 13 -10 18 -1 5 -2 14 -3 19 0 6 -8 10 -16 10 -18 0 -55 35 -55 53 0
6 9 1 20 -13 18 -22 22 -23 33 -10 14 18 53 25 61 11 3 -5 -2 -7 -11 -5 -14 4
-18 -2 -19 -21 -2 -22 2 -26 17 -22 10 3 26 -1 36 -8 17 -13 17 -14 1 -20 -32
-12 -19 -25 25 -25 38 0 44 3 54 30 6 17 8 28 3 25 -5 -3 -11 -1 -15 5 -11 17
-28 11 -21 -7 4 -10 -7 -3 -24 15 -31 34 -39 57 -17 49 6 -2 11 -9 10 -16 -2
-6 9 -13 25 -16 44 -10 57 -21 57 -48 -1 -21 2 -24 13 -15 9 8 16 8 20 2 10
-15 42 -25 42 -14 0 5 -8 14 -17 19 -15 9 -13 10 12 11 17 0 25 -3 18 -8 -8
-5 -9 -12 -2 -22 7 -13 10 -13 18 -1 6 9 11 10 15 2 4 -6 14 -11 22 -11 8 0
12 4 9 10 -3 6 4 10 17 10 20 1 21 2 6 11 -10 6 -15 16 -11 26 4 11 2 14 -8
11 -8 -3 -13 -14 -11 -26 2 -11 -2 -23 -8 -27 -5 -3 -11 2 -11 12 -2 29 2 48
13 54 7 4 6 9 -1 13 -16 10 -14 26 4 26 8 0 19 -9 25 -20 6 -11 20 -20 30 -20
11 0 20 -4 20 -9 0 -5 11 -11 25 -13 34 -7 31 6 -6 24 -17 9 -30 19 -30 24 1
5 -20 14 -45 19 -25 6 -42 13 -38 18 4 4 2 7 -5 7 -7 0 -10 4 -6 10 6 10 36 2
46 -13 9 -13 89 -19 89 -7 0 6 5 10 11 10 5 0 8 -4 4 -9 -3 -5 -1 -12 5 -16 6
-4 8 -10 5 -15 -3 -5 5 -12 17 -16 13 -4 24 -2 26 5 2 6 11 2 21 -11 20 -25
42 -17 34 12 -5 21 11 28 22 10 3 -6 15 -10 26 -10 12 0 19 -5 16 -12 -2 -7
-16 -12 -31 -10 -18 2 -25 -1 -21 -7 6 -11 -7 -15 -32 -12 -7 1 -13 -2 -13 -6
0 -11 66 -53 82 -53 8 0 6 5 -4 11 -10 5 -15 16 -11 24 4 13 9 11 27 -7 27
-29 89 -37 84 -11 -3 14 -11 17 -41 15 -28 -3 -37 0 -37 12 0 10 6 13 17 9 10
-4 14 -2 10 4 -4 7 3 10 18 9 14 0 25 -5 25 -11 1 -21 46 -52 79 -53 l33 -1
-23 26 c-17 17 -19 24 -9 23 8 -1 22 -2 30 -1 12 1 11 4 -3 12 -9 6 -15 14
-12 20 4 5 5 9 3 9 -2 0 -17 4 -34 9 -26 7 -31 6 -30 -8 0 -9 6 -20 12 -26 16
-14 25 -45 14 -45 -6 0 -10 3 -10 8 0 4 -11 20 -25 35 -14 15 -21 27 -16 27 5
0 11 8 13 18 5 24 58 23 81 -3 l17 -20 -7 20 c-6 18 -5 18 10 7 9 -8 21 -11
26 -8 5 4 13 1 17 -5 5 -8 3 -9 -6 -4 -9 5 -10 2 -5 -14 6 -21 -9 -30 -18 -11
-3 6 -4 5 -3 -2 2 -12 52 -46 70 -47 4 -1 -2 8 -15 19 -18 15 -19 18 -6 14 15
-5 17 -2 12 18 -5 19 -2 24 13 24 11 0 18 -5 16 -11 -4 -11 34 -53 42 -47 11
6 44 1 44 -8 0 -17 -41 -11 -73 12 -30 22 -30 11 1 -24 20 -23 97 -26 88 -3
-6 17 9 20 20 4 5 -8 9 -8 14 1 4 7 13 9 19 6 6 -4 9 -11 6 -16 -3 -4 6 -7 20
-6 28 1 31 6 13 24 -9 9 -8 12 4 12 9 0 20 -9 23 -20 8 -26 27 -26 43 0 7 11
21 20 31 20 23 0 36 -16 19 -23 -7 -2 -10 -8 -6 -12 4 -4 14 0 23 9 14 14 15
17 2 22 -22 8 -29 32 -9 30 9 0 21 -5 25 -11 5 -6 7 -5 5 3 -2 8 -7 13 -12 12
-8 -2 -26 19 -26 30 0 3 9 6 20 7 11 1 20 -4 20 -10 0 -18 52 -39 64 -27 6 6
-1 14 -23 21 -43 15 -33 23 13 10 l37 -10 -32 40 c-17 21 -35 39 -41 39 -6 0
-3 -9 7 -20 10 -11 13 -20 7 -20 -6 0 -13 4 -17 10 -3 5 -13 6 -21 3 -10 -4
-14 -1 -12 8 3 16 -5 21 -25 13 -8 -3 -13 -16 -11 -30 3 -28 -4 -30 -32 -9
-23 17 -38 19 -28 3 5 -8 2 -9 -10 -5 -10 4 -20 7 -22 7 -2 0 -4 5 -4 12 0 6
3 8 7 5 3 -4 12 1 19 11 11 16 13 16 33 -2 21 -19 30 -9 10 11 -8 8 0 13 34
18 48 7 157 -17 157 -35 0 -6 5 -10 10 -10 27 0 -18 39 -50 44 -21 3 -43 13
-50 21 -14 17 -7 19 20 5 15 -8 22 -6 33 10 14 20 14 20 38 1 14 -12 18 -20
11 -21 -9 0 -7 -9 8 -30 12 -17 25 -28 30 -25 5 3 12 1 15 -5 4 -6 15 -8 26
-5 22 7 44 -5 44 -24 0 -8 6 -16 14 -19 10 -3 11 2 6 18 -6 20 -4 22 11 16 11
-4 2 9 -19 29 -42 39 -49 42 -40 20 3 -10 0 -15 -8 -13 -8 2 -13 -2 -12 -9 2
-7 -3 -10 -10 -7 -7 2 -13 14 -14 25 -1 11 -14 30 -29 42 -64 50 -61 48 -42
41 11 -4 20 0 24 10 9 24 24 19 21 -6 -1 -16 3 -23 18 -23 13 0 19 -6 17 -17
-2 -10 3 -19 10 -19 7 -1 19 -2 26 -3 7 0 17 -8 22 -16 8 -11 12 -12 18 -3 8
13 28 12 57 -4 11 -6 35 -14 53 -18 18 -4 36 -13 39 -21 3 -8 10 -14 16 -14 7
0 7 4 -1 12 -18 18 -14 31 8 25 26 -7 26 -1 -1 13 -15 8 -24 8 -34 0 -9 -8
-15 -8 -20 0 -4 6 -15 8 -24 5 -10 -3 -24 1 -31 10 -6 8 -27 17 -46 21 -36 7
-110 63 -84 64 8 1 3 8 -13 16 -15 8 -33 13 -40 12 -7 -2 -14 2 -15 7 -5 19
28 16 57 -4 15 -11 31 -18 34 -15 3 4 21 -4 39 -17 24 -17 29 -18 18 -5 -14
17 -23 46 -14 46 2 0 13 -9 24 -20 22 -22 27 -50 8 -50 -7 0 -2 -7 11 -16 17
-12 25 -13 30 -5 5 7 15 2 31 -16 17 -20 25 -24 28 -13 3 8 0 16 -6 18 -20 6
-49 37 -57 61 -5 16 -4 21 4 17 6 -4 11 -2 11 3 0 16 12 13 40 -9 14 -10 21
-22 17 -26 -4 -4 -16 1 -27 11 -11 10 -20 13 -20 7 0 -7 5 -12 10 -12 6 0 10
-6 10 -13 0 -15 31 -47 45 -47 4 0 2 7 -5 15 -7 9 -10 18 -8 21 3 3 15 -6 26
-20 11 -15 25 -26 30 -26 6 0 15 -7 20 -16 8 -15 10 -15 15 0 4 9 2 16 -3 16
-5 0 -26 16 -47 35 -21 19 -33 35 -26 35 6 0 15 -4 18 -10 3 -5 12 -10 18 -10
7 0 6 4 -3 10 -21 14 5 13 31 -1 14 -7 18 -16 13 -31 -5 -17 -3 -19 15 -13 20
6 26 -3 22 -28 -1 -5 3 -5 9 -2 6 4 9 13 6 21 -4 10 2 14 20 14 15 0 23 4 19
11 -4 6 -19 9 -33 8 -38 -4 -50 6 -44 37 3 17 1 25 -5 21 -6 -4 -18 0 -28 7
-13 9 -15 15 -7 20 7 4 12 2 12 -4 0 -7 8 -9 20 -5 13 4 20 2 18 -5 -2 -7 2
-14 9 -17 12 -4 12 21 0 33 -4 4 -7 14 -7 23 0 11 3 10 15 -5 14 -19 14 -19
15 2 0 12 -10 26 -23 33 l-22 11 23 -6 c12 -3 22 -3 22 0 0 7 -56 36 -61 31
-2 -2 -5 9 -6 23 -1 24 0 25 12 9 7 -9 26 -22 44 -28 17 -6 28 -15 25 -20 -5
-8 19 -14 41 -9 6 1 7 -2 3 -6 -4 -4 0 -13 10 -21 16 -14 16 -14 -3 -8 -44 16
-55 17 -55 6 0 -6 8 -11 18 -12 11 0 12 -2 4 -6 -10 -4 -10 -8 0 -21 11 -13
10 -15 -10 -9 -22 5 -23 4 -8 -12 9 -10 13 -22 9 -27 -5 -5 1 -1 13 9 11 9 26
17 32 17 16 0 15 13 0 29 -11 11 -10 12 2 5 18 -10 37 -14 69 -16 14 0 34 -9
45 -20 l21 -20 -25 4 c-19 2 -24 -1 -22 -14 2 -15 -1 -16 -23 -8 -34 13 -45
13 -45 -1 0 -5 14 -15 30 -20 17 -6 30 -15 30 -20 0 -5 7 -9 15 -9 8 0 15 -3
15 -8 0 -4 9 -13 21 -20 19 -12 19 -11 9 7 -6 11 -20 26 -31 32 -11 6 -18 13
-15 16 3 3 17 -2 30 -11 21 -13 24 -13 20 -1 -3 8 -14 17 -25 20 -10 4 -19 11
-19 16 0 18 22 8 51 -23 26 -29 27 -33 12 -40 -12 -6 -7 -7 15 -5 23 3 31 0
28 -9 -3 -7 2 -10 14 -7 10 3 28 -1 40 -7 18 -10 21 -9 18 2 -3 7 -11 13 -19
13 -8 0 -13 8 -11 19 3 14 -1 17 -13 12 -10 -4 -14 -2 -9 6 5 8 0 9 -17 5 -16
-4 -30 0 -46 15 -13 12 -23 25 -23 30 0 16 30 8 40 -12 6 -11 20 -20 32 -20
16 0 18 3 9 14 -10 11 -8 16 5 24 16 9 15 11 -4 21 -14 7 -23 8 -27 1 -3 -5 2
-10 11 -10 14 0 15 -3 7 -11 -9 -9 -20 -6 -45 10 -27 18 -29 22 -10 18 19 -4
21 -3 12 8 -7 8 -9 19 -5 25 3 5 -2 10 -13 10 -11 0 -25 7 -32 15 -7 8 -16 13
-20 10 -4 -2 -22 9 -40 25 -33 30 -54 34 -31 6 8 -10 9 -16 1 -21 -5 -3 -10 1
-10 9 0 9 -17 26 -38 40 -43 27 -71 56 -53 56 6 0 11 -4 11 -9 0 -5 14 -17 32
-25 25 -13 33 -14 39 -4 6 9 15 6 34 -12 20 -19 28 -22 34 -11 6 9 11 10 15 2
4 -6 4 -11 0 -11 -4 0 1 -9 12 -21 12 -13 25 -18 40 -15 13 4 25 1 28 -7 3 -8
10 -6 21 8 16 20 16 20 31 1 8 -11 14 -23 14 -26 0 -4 11 -12 25 -18 14 -6 25
-19 25 -28 0 -13 3 -14 14 -5 12 10 12 16 0 39 -7 15 -22 27 -31 27 -10 0 -18
7 -18 15 0 10 10 15 30 14 31 -1 52 16 33 27 -14 9 -1 29 18 29 20 0 17 -27
-6 -52 -21 -23 -18 -41 5 -32 9 4 21 -5 32 -24 10 -17 26 -33 36 -36 11 -2 16
-9 12 -15 -3 -7 0 -8 9 -5 9 3 14 10 11 14 -3 5 0 10 7 12 6 2 8 10 4 16 -4 7
-16 10 -26 7 -13 -4 -22 1 -29 14 -10 18 -9 19 22 10 17 -6 37 -11 42 -12 6
-2 16 -6 23 -10 7 -5 12 -3 12 5 0 9 2 10 8 2 5 -9 11 -8 20 2 10 11 10 14 0
15 -7 0 -4 4 7 8 11 5 31 5 45 1 14 -4 36 -3 49 2 20 7 33 3 70 -24 30 -22 43
-26 38 -15 -4 10 -2 17 6 17 7 0 3 6 -9 13 -11 6 -36 22 -54 34 -19 12 -37 20
-42 17 -4 -3 -8 0 -8 7 0 7 -10 9 -25 7 -17 -4 -25 -1 -25 8 0 8 -4 14 -10 14
-5 0 -10 5 -10 10 0 14 37 13 42 -2 3 -7 12 -9 24 -4 17 7 16 9 -12 21 -18 7
-35 18 -38 24 -12 18 28 13 46 -6 43 -48 82 -68 130 -68 47 0 63 10 33 21 -8
4 -15 15 -15 25 0 14 -7 19 -25 19 -14 0 -25 -5 -25 -11 0 -6 7 -9 15 -5 23 8
18 -12 -6 -24 -16 -9 -20 -8 -17 2 4 17 -40 61 -52 53 -5 -3 -22 1 -37 9 l-28
15 28 1 c18 0 27 5 27 16 0 8 5 12 10 9 6 -4 8 -10 5 -14 -2 -5 11 -17 30 -27
34 -18 35 -18 49 1 12 16 17 18 27 8 18 -18 39 -16 39 2 0 8 -9 15 -20 15 -11
0 -20 5 -20 10 0 6 5 10 11 10 7 0 5 10 -5 25 -9 14 -12 25 -6 25 5 0 10 -4
10 -10 0 -5 6 -10 14 -10 8 0 16 -5 18 -11 2 -6 19 -9 37 -7 l33 3 -21 25
c-17 21 -20 21 -14 5 6 -18 5 -19 -11 -6 -13 11 -14 16 -4 22 19 13 23 11 51
-17 23 -23 30 -25 56 -16 16 6 32 8 35 5 3 -4 6 -2 6 3 0 5 -9 15 -20 22 -11
7 -20 8 -20 3 0 -5 -9 -11 -21 -14 -15 -4 -18 -2 -10 7 6 7 7 17 3 21 -4 5 -1
5 7 0 7 -4 16 -3 20 4 5 8 15 6 32 -7 19 -15 30 -17 49 -10 24 9 24 10 6 24
-19 13 -19 14 5 14 16 0 26 -6 26 -15 0 -8 -5 -15 -10 -15 -5 0 -7 -7 -3 -15
3 -8 1 -15 -4 -15 -18 0 -10 -18 11 -23 23 -6 40 20 20 32 -18 11 -2 41 23 42
11 1 34 2 51 3 19 1 33 8 40 21 10 20 11 19 40 -14 26 -29 27 -33 7 -22 -37
20 -60 -12 -27 -39 11 -9 15 -9 15 -1 0 6 11 17 25 23 24 11 24 12 8 31 -18
20 -17 20 12 14 34 -6 65 6 46 17 -6 4 -15 5 -20 2 -5 -3 -14 1 -21 9 -12 15
-3 21 25 15 5 -1 19 -2 30 -3 11 0 28 -7 38 -16 16 -13 17 -13 12 1 -6 15 21
58 36 58 3 0 11 -11 17 -25 12 -26 39 -36 28 -10 -3 8 -9 21 -12 29 -4 11 7
15 45 17 28 2 51 1 51 -3 0 -12 38 -9 45 3 4 6 -3 13 -15 16 -16 4 -18 8 -8
14 18 12 51 11 43 0 -3 -5 -1 -12 5 -16 5 -3 10 1 10 9 0 8 9 20 20 26 14 7
20 7 20 0 0 -5 5 -10 11 -10 5 0 7 5 4 11 -4 6 -1 10 6 8 27 -3 39 1 37 14 -2
7 9 13 25 15 15 2 27 -1 27 -7 0 -6 5 -11 12 -11 9 0 9 3 0 12 -18 18 -14 30
7 23 11 -3 22 -1 26 5 3 5 17 7 31 4 15 -4 24 -2 24 6 0 6 5 8 10 5 6 -3 13 0
16 8 3 9 16 18 30 21 l24 6 0 1420 0 1420 -21 0 c-11 0 -75 12 -142 26 -67 14
-137 25 -156 26 -23 0 -30 3 -20 9 8 5 21 7 29 4 8 -2 77 -13 152 -24 76 -11
142 -22 148 -26 7 -4 10 458 10 1465 0 1397 -1 1471 -17 1466 -20 -5 -185 -32
-253 -40 l-45 -6 50 16 c60 19 84 37 37 28 -22 -4 -32 -3 -32 5 0 7 -4 9 -10
6 -5 -3 -10 -1 -10 5 0 6 -4 9 -8 6 -5 -3 -23 -8 -40 -11 -31 -5 -31 -5 -20
26 8 23 13 27 19 17 7 -11 9 -11 9 1 0 8 -7 19 -16 25 -21 16 -8 45 17 39 15
-4 18 -2 13 11 -3 9 -2 16 4 16 5 0 10 -21 10 -47 1 -47 18 -71 37 -51 7 7 6
12 -3 15 -6 3 -9 10 -5 16 13 21 14 49 2 64 -10 11 -9 12 5 7 10 -4 16 -1 17
7 1 8 2 21 3 29 0 8 -3 18 -9 22 -6 5 -5 8 3 8 9 0 11 7 7 20 -4 11 -2 20 4
20 12 0 14 -74 3 -135 -7 -37 5 -105 18 -105 4 0 6 10 7 23 0 12 8 60 17 107
8 47 16 97 16 113 l0 27 -139 0 -138 0 -6 -52 c-2 -29 -2 -57 0 -62 10 -16 23
19 17 47 -3 15 -1 27 4 27 13 0 24 -29 16 -42 -11 -17 -13 -93 -3 -109 7 -11
9 -10 9 4 0 12 6 17 18 15 14 -3 16 -12 14 -48 -3 -47 -21 -100 -35 -100 -4 0
-3 9 4 21 7 14 8 24 1 31 -15 15 -32 0 -32 -29 0 -41 -9 -22 -11 25 -3 40 -11
52 -23 33 -4 -5 0 -12 6 -15 7 -3 3 -3 -10 0 -18 4 -25 1 -29 -15 -3 -12 -9
-21 -14 -21 -15 0 -10 37 7 51 9 7 14 22 11 36 -3 17 0 23 8 19 9 -3 15 14 19
57 4 34 9 77 13 95 l5 32 -45 0 -45 0 -4 -62 c-2 -35 0 -81 3 -103 4 -22 4
-41 -1 -43 -5 -2 -16 -25 -25 -52 -18 -53 -27 -60 -65 -49 l-25 7 27 1 c15 1
29 4 31 9 3 4 8 56 11 117 4 60 10 113 12 117 3 5 -2 15 -10 24 -9 9 -14 20
-10 25 3 6 -32 9 -90 8 -87 -1 -117 -9 -84 -22 10 -4 10 -6 1 -6 -7 -1 -13 -6
-13 -12 0 -5 4 -8 9 -5 5 3 12 -1 15 -10 4 -11 2 -15 -6 -11 -16 6 -23 -69 -8
-78 8 -5 8 -11 0 -20 -8 -10 -9 -19 -1 -32 9 -16 10 -16 11 -1 0 9 7 21 17 26
10 6 14 16 10 26 -4 10 -1 16 9 16 10 0 13 -7 8 -24 -3 -13 -1 -27 4 -30 5 -3
13 6 16 20 4 14 12 24 19 21 17 -5 17 -57 1 -57 -19 0 -17 -10 4 -26 15 -12
15 -13 1 -14 -9 0 -21 -10 -27 -22 -10 -21 -11 -21 -11 12 -1 24 -4 31 -10 21
-5 -8 -16 -11 -26 -7 -11 4 -24 -1 -36 -15 -19 -22 -19 -22 -19 32 0 30 -4 60
-9 67 -15 25 -29 -10 -29 -72 1 -55 2 -59 29 -70 37 -13 37 -22 2 -21 l-28 0
-3 -100 c-4 -156 -2 -368 4 -377 3 -5 -7 -25 -22 -45 -25 -33 -28 -34 -35 -17
-6 16 -8 15 -8 -8 -1 -14 -4 -33 -7 -42 -7 -19 -25 -22 -22 -3 2 8 -17 14 -62
17 l-65 5 -2 45 c-1 25 0 38 3 30 4 -12 19 -14 77 -12 40 2 75 9 79 15 4 7 8
118 8 247 0 265 6 340 26 340 9 0 14 11 14 28 0 32 15 32 -210 8 -74 -8 -178
-15 -230 -15 -52 0 -111 -2 -130 -5 -234 -29 -299 -29 -301 -3 0 7 -2 27 -3
45 -2 18 -1 34 3 36 14 7 46 -20 46 -39 0 -21 12 -22 143 -11 23 1 42 0 42 -3
0 -3 20 -5 45 -3 44 4 45 5 45 39 0 32 -2 34 -31 31 -16 -2 -34 -10 -39 -18
-8 -13 -10 -12 -10 3 0 23 -9 22 -37 -5 l-23 -21 0 21 c0 27 -39 32 -127 17
-39 -7 -54 11 -16 19 51 11 147 18 222 16 81 -2 90 4 83 50 -4 29 -6 30 -58
30 -30 0 -54 -4 -54 -10 0 -5 -5 -10 -11 -10 -5 0 -7 5 -4 10 4 6 -38 10 -119
10 -109 0 -126 -2 -134 -17 -14 -26 -11 -113 4 -150 19 -45 19 -163 0 -163
-10 0 -12 -7 -8 -22 4 -16 2 -19 -8 -13 -10 6 -11 2 -6 -20 5 -18 3 -31 -5
-36 -9 -5 -6 -19 10 -53 23 -46 21 -66 -5 -66 -8 0 -14 -4 -14 -10 0 -5 6 -7
14 -4 10 4 15 -6 19 -38 3 -24 8 -55 12 -70 6 -23 4 -28 -11 -29 -11 0 -14 -3
-6 -6 20 -8 14 -33 -8 -33 -11 0 -20 -5 -20 -10 0 -6 11 -8 26 -4 22 6 25 4
22 -12 -2 -12 -14 -21 -33 -24 l-30 -5 33 -14 c35 -15 43 -31 14 -31 -22 0
-42 -19 -42 -40 0 -21 66 -42 80 -25 5 6 7 15 4 18 -4 3 -3 14 0 24 6 15 9 15
17 3 9 -12 10 -10 6 7 -4 19 1 23 34 28 21 4 43 4 49 0 5 -3 10 -3 10 2 0 4 3
88 7 187 5 146 3 180 -8 187 -10 6 -10 9 -1 9 8 0 12 18 12 55 0 43 -3 55 -16
55 -14 0 -14 1 0 16 9 8 16 24 16 34 0 23 31 35 45 18 5 -7 16 -13 23 -14 29
-2 33 -5 27 -14 -4 -6 -10 -8 -15 -5 -5 3 -11 1 -15 -5 -4 -6 -11 -8 -16 -5
-13 9 -11 -29 3 -43 9 -9 9 -12 0 -12 -7 0 -12 -9 -12 -20 0 -16 7 -20 33 -20
l32 0 -29 -15 c-22 -12 -32 -12 -42 -4 -11 9 -14 7 -14 -7 -1 -11 -3 -100 -6
-199 l-5 -180 30 32 c16 17 32 29 34 26 3 -2 14 8 23 24 39 60 125 162 156
184 l33 23 -28 -36 c-21 -29 -27 -48 -27 -87 l0 -51 -44 0 c-40 0 -47 -4 -82
-47 -21 -26 -51 -60 -66 -75 -42 -43 -36 -50 35 -42 60 6 64 9 122 68 67 68
185 206 257 300 77 100 247 288 248 274 0 -4 -18 -28 -40 -53 -22 -25 -40 -53
-40 -61 0 -8 -4 -13 -9 -10 -5 3 -25 -15 -45 -41 -25 -33 -36 -57 -37 -82 0
-20 -1 -112 -3 -206 -2 -160 -8 -205 -26 -205 -4 0 -7 69 -7 153 -1 83 -1 175
-2 202 l-2 50 -27 -32 c-166 -192 -288 -336 -290 -344 -2 -5 58 -7 147 -3
l151 5 0 -23 c0 -34 -11 -43 -50 -45 -72 -3 -242 -19 -247 -24 -8 -5 -30 -4
-49 2 -14 5 -26 2 -36 -7 -11 -11 -25 -12 -68 -4 -30 5 -65 11 -77 13 -12 2
-26 6 -29 10 -10 10 -34 9 -34 -2 0 -5 19 -12 43 -16 23 -4 47 -11 53 -16 7
-6 43 -11 80 -13 108 -6 214 -18 219 -26 2 -4 30 -3 62 2 131 20 313 34 313
23 0 -6 -17 -12 -37 -13 -109 -6 -344 -30 -350 -36 -3 -3 91 -61 148 -91 10
-5 19 -13 19 -17 0 -5 8 -8 18 -9 13 0 12 -2 -5 -9 -27 -11 -27 -8 -7 -56 9
-22 19 -33 21 -26 6 15 23 16 23 2 0 -6 -7 -27 -16 -48 -8 -20 -14 -39 -14
-41 1 -2 -4 -8 -12 -13 -9 -7 -5 -8 15 -5 23 4 27 1 27 -19 0 -18 -4 -22 -17
-17 -30 12 -55 40 -52 59 5 32 -12 84 -26 84 -8 0 -19 9 -25 19 -5 11 -23 22
-40 26 -16 4 -30 11 -30 16 0 13 36 2 77 -23 l33 -20 0 35 c0 33 -2 35 -41 41
-29 5 -44 2 -55 -9 -9 -8 -16 -15 -18 -15 -1 0 -38 13 -82 29 -72 26 -150 42
-368 72 -38 5 -83 16 -100 23 -35 16 -137 24 -371 32 -88 2 -171 7 -185 10
-14 4 -36 7 -50 9 -14 1 -34 5 -44 10 -14 6 -17 5 -12 -3 5 -9 -6 -10 -41 -6
-42 5 -158 8 -218 5 -15 -1 -11 -6 15 -17 69 -32 80 -37 76 -41 -3 -4 -118 36
-161 56 -11 5 -44 15 -73 21 -68 16 -74 27 -15 35 127 16 120 16 99 0 -19 -14
-17 -15 19 -15 36 0 37 -1 20 -14 -18 -13 -18 -14 8 -9 15 3 27 9 27 14 0 5 7
9 16 9 14 0 15 2 3 17 -10 12 -11 15 -1 9 7 -4 19 -2 27 4 12 10 18 10 30 0
10 -9 15 -9 15 -1 0 7 20 11 52 11 67 0 52 19 -23 29 -36 5 34 9 201 13 140 3
262 2 270 -3 13 -7 13 -9 0 -10 -8 0 5 -6 30 -13 36 -10 47 -10 56 1 12 14
100 16 144 4 31 -9 103 17 92 33 -10 17 -10 130 1 144 6 8 6 12 -3 12 -9 0
-11 14 -8 50 4 38 1 53 -10 59 -10 6 -11 10 -3 15 6 4 11 22 11 41 0 19 4 37
10 40 5 3 10 13 10 21 0 8 -4 12 -10 9 -5 -3 -10 1 -10 10 0 11 5 15 14 12 8
-3 17 1 20 9 10 26 7 34 -12 34 -16 0 -18 7 -14 53 2 28 3 59 2 67 -2 26 1
154 5 184 2 16 9 32 16 37 8 5 5 10 -9 18 -14 7 -138 11 -385 11 l-365 0 -8
-37 c-4 -21 -8 -44 -7 -50 0 -7 -5 -13 -11 -13 -7 0 -13 -7 -13 -15 0 -8 3
-15 7 -15 4 0 5 -12 2 -27 -5 -25 -3 -27 11 -14 9 7 14 17 12 22 -10 15 7 58
23 62 15 4 15 5 0 6 -20 1 -24 16 -8 26 6 3 10 15 10 26 0 10 3 19 8 19 4 0 7
-40 7 -89 0 -49 -3 -87 -7 -85 -8 5 -28 -52 -32 -93 -2 -15 -4 -31 -5 -35 -2
-13 -44 -48 -58 -48 -7 0 -13 6 -13 14 0 9 -7 12 -19 9 -11 -3 -27 3 -39 15
-23 23 -62 38 -62 23 0 -5 10 -13 22 -17 52 -16 298 -194 477 -344 62 -52 122
-101 132 -109 10 -7 19 -17 19 -22 0 -5 -54 -9 -120 -9 -109 0 -120 2 -120 18
0 19 -78 103 -95 103 -5 0 -12 -14 -15 -31 -7 -46 -24 -32 -24 21 -1 44 -4 49
-53 88 -51 40 -70 50 -59 32 9 -13 -16 -20 -35 -10 -9 5 -20 20 -23 35 -7 25
-8 26 -22 8 -14 -18 -15 -17 -9 11 4 22 3 26 -5 15 -5 -8 -10 -22 -10 -31 0
-9 -9 -19 -20 -22 -16 -4 -20 0 -20 20 0 35 18 63 35 57 19 -7 19 -3 1 31 -9
17 -16 22 -19 13 -3 -7 -4 2 -3 20 2 17 6 35 9 39 14 13 6 23 -33 43 -22 11
-40 24 -40 28 0 9 -123 29 -220 37 -30 3 -109 10 -174 16 -68 6 -308 10 -555
9 -240 -1 -449 2 -466 6 -36 11 -126 11 -261 0 l-102 -8 -4 69 c-3 37 -1 72 3
77 6 6 9 5 9 -3 0 -7 5 -9 11 -6 7 5 3 14 -10 26 -24 23 -24 24 -11 50 9 16 7
19 -12 20 -22 1 -22 1 2 9 l25 8 -24 1 c-14 1 -33 -7 -43 -16 -14 -13 -21 -14
-27 -5 -4 6 -29 15 -57 18 -36 4 -45 3 -34 -5 8 -6 27 -11 43 -11 15 0 27 -4
27 -9 0 -5 16 -12 35 -15 32 -6 59 -26 36 -26 -6 0 -11 -9 -11 -20 0 -11 5
-20 10 -20 13 0 13 -97 0 -105 -6 -3 -10 -14 -9 -23 0 -14 2 -13 9 3 8 19 9
19 9 -2 1 -20 -4 -23 -36 -23 -33 -1 -91 -12 -321 -60 -24 -5 -53 -16 -65 -25
-12 -8 -28 -15 -35 -15 -14 0 -105 -50 -100 -55 2 -2 52 10 113 25 60 16 111
27 113 25 2 -2 -15 -25 -39 -50 -24 -26 -48 -53 -52 -62 -9 -16 -17 -15 -115
14 -39 11 -51 18 -43 26 6 6 11 21 11 34 0 13 5 23 10 23 6 0 10 13 10 30 0
16 -4 29 -9 27 -5 -1 -9 1 -10 6 -3 21 0 28 9 22 6 -3 10 1 10 9 0 9 7 16 15
16 11 0 15 -12 15 -46 0 -33 4 -45 13 -41 6 2 29 10 50 18 l37 13 2 136 c1 74
2 142 4 150 1 8 2 19 3 24 1 6 8 1 16 -10 16 -19 16 -19 13 1 -3 19 -12 20
-189 23 -172 2 -186 1 -186 -15 1 -139 -5 -283 -11 -283 -9 0 -12 33 -17 160
-1 41 -3 90 -4 108 l-1 32 -254 0 -253 0 -6 -37 c-4 -21 -2 -39 3 -41 5 -2 9
-62 9 -133 1 -72 3 -134 6 -139 2 -4 -6 -10 -20 -12 -14 -3 -25 -1 -25 4 0 11
-190 5 -209 -6 -6 -4 -26 -5 -44 -1 -22 4 -28 3 -18 -3 11 -8 8 -10 -10 -9
-13 0 -48 -3 -78 -8 -37 -5 -52 -5 -48 2 9 15 -12 22 -48 16 -17 -2 -43 -3
-60 -2 -101 6 -335 -3 -335 -13 0 -4 35 -9 78 -9 56 -1 69 -3 47 -9 -35 -9
-25 -12 30 -10 22 1 51 -3 65 -8 17 -6 -53 -10 -213 -10 -130 -1 -242 -4 -247
-7 -6 -4 -169 -8 -363 -11 -193 -2 -392 -6 -442 -9 -62 -3 -83 -1 -67 5 12 5
37 11 55 14 18 2 79 9 137 16 58 7 123 16 145 20 l40 8 -40 2 c-22 1 -83 3
-135 4 -52 1 -111 4 -130 5 -33 3 -33 3 -10 11 24 8 23 8 -7 9 -20 1 -33 -4
-33 -11 0 -9 -3 -9 -12 0 -15 15 -58 16 -58 2 0 -16 -22 -12 -65 11 -23 12
-71 25 -110 29 l-70 7 56 2 c41 1 59 5 63 16 5 13 10 14 28 4 16 -8 75 -10
217 -5 108 4 240 7 293 8 99 1 115 7 102 43 -4 8 -1 15 5 15 6 0 11 -13 11
-30 l0 -30 156 0 155 0 -2 48 c-3 62 15 66 21 5 l5 -48 65 0 c60 0 65 2 65 21
1 12 7 30 15 40 8 10 11 15 5 12 -6 -4 -10 32 -10 99 0 58 -3 109 -6 114 -3 5
-453 8 -1120 7 l-1114 -3 3 -35 c2 -19 5 -39 5 -45 1 -6 -26 -11 -60 -12 -50
-2 -63 0 -63 12 0 8 -4 15 -10 15 -5 0 -9 -6 -7 -12 1 -10 -73 -14 -342 -16
l-343 -3 4 31 c3 16 1 30 -3 30 -4 0 -11 9 -14 21 -6 17 -14 20 -53 17 -33 -2
-47 -7 -48 -18 -2 -33 -4 -40 -13 -40 -6 0 -16 12 -23 28 -11 23 -20 28 -58
30 -37 3 -43 1 -32 -10z m8962 -228 c12 -7 17 -16 13 -27 -5 -12 -3 -14 7 -8
8 5 11 3 8 -6 -2 -8 -17 -15 -31 -17 -15 -2 -27 -10 -27 -17 0 -9 6 -12 15 -9
9 4 15 1 15 -7 0 -24 -17 -42 -31 -35 -8 4 -6 1 3 -7 16 -13 15 -14 -13 -15
-17 0 -33 -3 -36 -5 -2 -3 -5 -31 -5 -64 -1 -58 -4 -64 -85 -182 -2 -3 -7 0
-12 5 -11 11 -25 154 -15 154 4 0 22 -10 41 -21 19 -12 37 -18 41 -15 3 4 0
11 -8 16 -12 7 -12 12 -2 22 6 6 12 23 12 35 0 13 11 35 25 48 13 14 21 25 18
25 -3 0 0 7 7 15 15 18 16 17 -32 40 -32 14 -38 22 -38 47 0 20 4 29 13 25 6
-2 21 -1 32 4 29 11 63 11 85 -1z m224 -6 c9 -22 7 -102 -1 -107 -5 -3 -37 -7
-73 -9 l-65 -3 -5 40 c-3 22 -10 39 -16 38 -7 -1 -9 8 -6 22 4 25 -2 24 133
33 17 1 29 -4 33 -14z m-7292 -51 c3 -27 5 -28 78 -33 43 -3 64 -8 50 -11 -17
-3 -6 -7 38 -13 49 -6 60 -11 52 -21 -7 -8 -26 -11 -55 -8 -24 3 -52 2 -62 -2
-10 -4 -42 -7 -71 -5 -39 1 -59 -3 -72 -15 -13 -12 -31 -16 -53 -13 -25 3 -33
0 -30 -9 3 -8 24 -13 52 -14 43 -1 44 -1 16 -10 -22 -6 -45 -4 -85 8 -53 17
-54 18 -25 24 21 5 5 8 -50 10 -44 1 -111 4 -150 5 -38 2 -99 7 -135 11 l-65
9 65 10 c39 5 66 14 66 22 4 32 7 35 13 12 5 -19 14 -25 32 -24 13 1 97 8 187
15 l162 13 0 33 c0 26 4 33 19 33 14 0 21 -8 23 -27z m2778 -73 c0 -11 7 -20
15 -20 8 0 14 -5 13 -12 -4 -15 66 -31 71 -16 2 6 6 7 10 0 10 -15 51 -25 51
-11 0 8 4 8 16 -2 9 -7 31 -12 50 -11 19 2 34 -1 34 -6 0 -9 1 -9 65 -15 53
-5 200 -50 303 -93 93 -39 155 -74 131 -74 -35 0 -229 30 -251 39 -45 19 -195
51 -358 77 -153 24 -249 33 -505 49 -55 4 -120 10 -145 15 -38 6 -31 8 48 9
56 1 92 5 92 11 0 7 6 7 18 1 23 -12 211 -25 194 -13 -8 5 11 9 53 9 37 0 70
4 73 10 4 5 14 13 22 16 8 3 2 6 -14 6 -28 1 -28 2 -11 14 10 8 15 19 11 25
-4 7 -2 12 3 12 6 0 11 -9 11 -20z m3608 -195 c2 -44 5 -81 7 -83 2 -2 22 16
45 40 l43 43 -39 -45 c-43 -51 -76 -70 -73 -42 3 30 -1 43 -10 38 -5 -3 -7
-24 -5 -46 3 -38 -5 -52 -33 -56 -7 -1 -13 3 -13 9 0 8 -4 7 -12 -1 -7 -7 -16
-12 -22 -12 -5 0 -6 3 -3 7 12 12 -13 31 -34 26 -11 -3 -30 -1 -42 5 -12 7
-35 16 -51 22 -47 17 -24 20 39 5 33 -8 62 -14 65 -15 3 0 4 43 2 96 l-4 95
68 -3 69 -3 3 -80z m-7174 -84 c-10 -17 -21 -28 -25 -25 -13 8 -22 -17 -10
-29 7 -7 0 -20 -26 -45 -21 -19 -39 -30 -41 -23 -6 17 -27 13 -48 -10 -19 -21
-19 -22 4 -15 14 5 22 3 22 -4 0 -7 -10 -21 -22 -31 l-23 -20 24 12 c14 6 36
22 50 35 29 27 43 31 35 9 -4 -8 -12 -15 -20 -15 -10 0 -13 -7 -8 -24 5 -20
-1 -26 -40 -45 -25 -13 -49 -22 -53 -22 -4 0 -11 -9 -15 -20 -10 -25 -24 -24
-31 3 -7 25 -1 38 17 38 8 0 19 6 25 14 9 11 8 14 -6 12 -10 0 -21 -5 -25 -11
-16 -22 -21 9 -6 35 9 16 13 30 8 32 -5 2 1 23 13 48 21 44 22 45 25 16 2 -19
-2 -32 -12 -38 -20 -11 -20 -24 -1 -32 8 -3 14 -2 13 2 -4 16 23 92 33 92 5 0
7 11 3 24 -8 35 11 40 41 10 14 -14 27 -25 29 -23 1 2 11 21 21 42 14 27 26
37 43 37 23 0 23 0 6 -29z m4374 -45 c17 -16 32 -36 32 -44 0 -7 4 -11 8 -8
13 8 38 -10 332 -243 80 -63 147 -117 150 -121 3 -3 30 -25 60 -50 202 -165
647 -573 824 -757 69 -72 126 -123 137 -123 11 0 19 3 19 8 0 10 131 9 153 -2
9 -4 17 -14 17 -22 0 -10 -14 -12 -55 -11 -29 2 -57 6 -61 10 -12 12 -24 8
-24 -9 0 -8 3 -13 8 -11 4 3 27 2 52 -2 25 -4 59 -4 74 0 19 5 38 3 55 -6 23
-12 23 -14 6 -15 -29 -1 67 -60 205 -127 63 -30 123 -59 132 -64 10 -5 41 -9
70 -8 l53 1 -32 14 c-18 8 -33 17 -33 20 0 10 83 -6 99 -19 12 -10 13 -9 6 3
-7 12 -6 13 6 4 8 -6 49 -21 91 -33 43 -12 103 -35 135 -50 32 -16 90 -34 128
-41 136 -25 380 -110 490 -170 39 -21 106 -53 150 -71 44 -17 116 -49 160 -71
129 -65 443 -264 432 -274 -2 -2 -21 3 -42 11 -44 19 -59 11 -27 -15 23 -19
31 -37 10 -24 -7 5 -3 -5 10 -20 29 -37 109 -89 115 -73 2 7 14 3 32 -11 15
-12 35 -22 44 -22 36 0 112 -112 110 -162 0 -13 -3 -17 -6 -11 -2 7 -4 15 -4
18 1 3 -10 17 -23 30 -21 20 -29 23 -50 16 -20 -8 -27 -6 -38 11 -10 15 -20
19 -37 13 -12 -4 -20 -9 -18 -12 3 -2 -3 -13 -14 -24 -20 -20 -49 -26 -49 -9
0 6 -7 10 -15 10 -8 0 -15 5 -15 11 0 16 -51 1 -67 -19 -8 -11 -11 -31 -8 -54
6 -41 4 -43 -27 -27 -12 6 -18 7 -14 1 3 -5 -2 -13 -12 -17 -11 -4 -23 2 -37
19 -12 14 -28 26 -38 26 -9 0 -17 4 -17 8 0 5 -11 14 -25 20 -16 8 -25 8 -25
1 0 -5 -8 -9 -17 -7 -10 2 -17 -3 -16 -9 4 -20 -11 -15 -24 6 -10 15 -10 21 0
24 7 3 5 6 -5 6 -9 1 -27 20 -41 44 -33 55 -117 134 -154 143 -15 4 -33 10
-38 15 -6 4 -42 15 -80 25 -39 9 -77 23 -86 30 -8 8 -20 14 -26 14 -6 0 -13 5
-15 11 -4 11 -128 47 -233 68 -33 7 -76 17 -96 22 -20 5 -46 9 -57 9 -12 0
-55 11 -96 24 -40 14 -95 28 -120 31 -25 4 -49 12 -53 18 -4 7 5 8 26 4 18 -4
41 -3 51 3 26 14 31 45 8 59 -10 6 -16 16 -13 21 3 5 -3 8 -12 8 -17 -1 -90 9
-233 32 -108 18 -133 21 -180 23 -38 2 -45 5 -48 25 -3 21 5 27 38 22 10 -1 9
3 -5 13 -12 10 -22 12 -26 5 -4 -5 -9 -3 -12 6 -4 9 -17 16 -29 16 -20 1 -21
2 -6 10 10 7 25 7 42 0 21 -8 24 -7 20 8 -3 9 2 5 10 -10 13 -21 23 -26 49
-25 17 2 41 8 52 15 18 10 15 11 -22 12 -24 0 -43 -4 -43 -10 0 -5 -4 -10 -9
-10 -5 0 -7 9 -4 20 3 13 0 20 -8 21 -8 1 0 5 16 9 l30 8 -35 1 c-19 0 -52 10
-73 21 -20 11 -36 17 -36 13 3 -21 -4 -23 -31 -6 -36 21 -38 36 -7 55 26 17
82 30 91 21 4 -4 12 -8 19 -9 7 -1 21 -5 32 -9 20 -7 20 -6 1 9 -23 19 -18 26
20 29 16 1 38 10 48 19 14 12 23 15 32 7 8 -7 12 -6 11 3 -1 34 4 48 18 48 8
0 15 4 15 8 0 7 -29 8 -67 4 -7 -1 -13 -9 -13 -18 0 -11 -6 -14 -22 -10 -13 3
-17 3 -10 0 19 -9 14 -24 -8 -24 -11 0 -19 -5 -18 -12 2 -7 -6 -13 -17 -15
-79 -11 -151 -28 -157 -36 -4 -7 -16 -4 -32 7 -30 19 -33 25 -8 21 9 -1 11 0
5 2 -7 3 -13 12 -13 21 0 13 -2 14 -8 4 -11 -16 -40 -6 -67 22 -11 12 -28 20
-38 18 -10 -2 -26 -1 -35 3 -16 6 -16 8 2 20 17 13 16 15 -17 29 -35 14 -107
79 -107 96 0 5 8 11 18 13 9 3 3 5 -14 6 -44 1 -91 27 -110 61 -14 23 -24 28
-53 27 -20 -1 -42 2 -49 7 -6 4 -12 3 -12 -3 0 -6 9 -15 20 -21 14 -7 20 -7
20 0 0 5 4 10 10 10 5 0 7 -7 3 -16 -4 -12 0 -14 21 -8 16 4 26 2 26 -5 0 -6
-8 -11 -17 -12 -10 0 -2 -5 17 -12 21 -7 36 -20 38 -32 2 -11 28 -44 57 -72
28 -29 50 -55 48 -57 -2 -2 4 -3 14 -2 10 0 17 -4 16 -10 -1 -7 6 -10 16 -7
14 3 21 -3 29 -26 6 -17 17 -31 24 -31 10 0 10 2 -1 9 -7 5 -9 11 -4 14 6 4
25 -7 44 -24 33 -30 34 -31 14 -46 -19 -15 -19 -15 7 -9 32 7 45 -8 26 -31
-11 -15 -10 -16 10 -11 12 4 20 2 17 -2 -3 -5 -1 -11 4 -14 14 -9 -39 -63 -73
-76 -43 -16 -25 -23 23 -8 22 7 41 18 41 24 0 19 27 37 35 23 6 -8 10 -7 17 2
6 10 7 7 3 -8 -4 -14 -2 -23 4 -23 6 0 11 5 11 10 0 7 7 7 20 0 11 -6 18 -15
15 -21 -4 -5 -11 -7 -16 -4 -14 9 -11 -5 4 -20 8 -7 27 -12 44 -11 24 2 32 -3
43 -27 6 -15 11 -30 9 -31 -2 -2 -33 3 -69 11 -56 12 -101 19 -157 22 -7 1
-14 9 -14 19 -1 16 -2 16 -6 -1 -4 -15 -13 -16 -66 -11 -34 3 -64 9 -67 14 -7
10 -58 21 -102 22 -21 0 -38 3 -38 7 0 3 -21 7 -48 8 -26 0 -59 8 -74 15 l-27
14 43 42 c24 23 45 42 48 42 2 0 2 -15 0 -33 -3 -23 2 -38 14 -48 16 -13 16
-12 6 8 -7 12 -12 26 -12 31 0 8 49 20 102 26 16 2 20 16 4 16 -10 0 -14 5
-11 11 4 6 0 9 -8 7 -9 -2 -16 0 -16 5 -2 21 0 27 11 27 19 0 48 32 48 52 0
13 4 17 13 12 7 -5 6 0 -3 11 -12 15 -12 19 -2 23 15 5 15 3 -51 75 -19 20
-42 37 -50 37 -21 0 -29 27 -10 34 9 4 13 9 10 12 -3 3 -17 -2 -31 -11 -24
-16 -26 -16 -61 10 -19 15 -35 22 -35 17 0 -6 -8 -9 -17 -6 -15 5 -15 3 1 -10
11 -9 25 -16 30 -16 6 -1 27 -15 46 -32 26 -23 29 -27 10 -17 -14 7 -30 19
-36 27 -7 10 -19 13 -37 8 -14 -3 -28 -2 -31 3 -3 5 -42 12 -86 16 -89 8 -90
8 -91 -2 0 -5 -4 -12 -8 -18 -13 -18 -6 -40 12 -37 9 2 17 -2 17 -8 0 -6 21
-20 47 -31 36 -15 44 -22 33 -29 -11 -7 -8 -10 13 -10 32 0 35 -19 7 -45 -11
-10 -20 -28 -20 -39 1 -18 4 -17 29 13 33 40 67 50 76 22 3 -10 18 -24 33 -32
15 -7 29 -15 31 -16 6 -4 -31 -32 -43 -33 -4 0 -6 7 -3 15 4 8 2 17 -3 20 -6
4 -10 2 -10 -4 0 -5 -20 -8 -46 -6 -53 3 -84 -3 -84 -17 0 -5 5 -6 12 -2 7 4
8 3 4 -4 -10 -17 -33 -15 -40 4 -3 8 -11 12 -17 8 -16 -10 -58 16 -52 32 4 10
0 12 -11 8 -9 -3 -16 -11 -16 -18 0 -6 -3 -20 -6 -31 -4 -17 0 -20 36 -21 24
-1 38 2 34 8 -4 6 2 8 12 6 11 -2 18 -9 17 -15 -2 -8 12 -10 40 -8 23 1 36 1
28 -2 -11 -4 -11 -7 0 -13 7 -5 -7 -7 -32 -6 -42 2 -98 -11 -109 -26 -8 -10
-249 9 -290 23 -19 6 -39 17 -45 23 -5 7 -18 15 -28 19 -13 5 -17 2 -15 -10 2
-9 -3 -18 -11 -21 -8 -3 -11 0 -7 7 4 6 0 11 -11 12 -10 0 -51 1 -90 2 -68 2
-73 4 -73 24 0 12 -5 25 -12 29 -7 4 -8 3 -4 -5 10 -15 -3 -69 -12 -54 -13 19
-50 34 -54 21 -3 -7 -9 -8 -19 -3 -21 14 -59 17 -59 5 0 -5 -5 -10 -11 -10 -8
0 -7 5 2 16 10 13 10 17 -2 25 -21 13 -33 11 -46 -10 -14 -22 -53 -18 -53 5 0
17 -16 19 -25 3 -4 -6 3 -21 16 -35 l22 -24 -25 0 c-14 0 -46 6 -71 14 -42 13
-48 12 -57 -2 -8 -15 -11 -15 -20 -2 -9 13 -11 13 -20 0 -7 -12 -10 -12 -10
-1 0 7 -6 11 -15 8 -8 -4 -17 -1 -21 4 -3 6 -15 9 -25 6 -12 -3 -19 0 -19 10
0 8 -6 13 -12 10 -12 -4 -30 13 -62 58 -8 11 -18 16 -23 11 -4 -5 -2 -11 5
-13 6 -3 12 -11 12 -18 0 -7 6 -16 13 -18 9 -4 8 -8 -3 -16 -11 -8 -16 -7 -18
4 -3 11 -8 12 -22 5 -20 -11 -33 0 -44 38 -5 15 -3 22 6 23 7 0 2 5 -12 11
l-25 11 35 8 c19 4 36 4 38 -1 2 -4 24 0 50 10 26 10 83 23 127 28 44 6 88 14
98 17 12 5 17 2 17 -9 0 -17 20 -21 36 -8 5 5 47 14 94 22 47 7 114 18 150 25
142 28 157 28 163 3 4 -12 2 -27 -3 -32 -12 -12 -13 -29 -1 -22 12 8 28 -13
37 -49 4 -16 20 -43 37 -60 l29 -30 -25 40 c-13 22 -28 51 -32 65 -4 14 -11
30 -15 35 -5 6 -11 26 -15 45 -6 32 -4 36 25 49 17 7 72 19 123 27 147 21 208
32 292 54 43 11 92 20 109 20 17 0 45 4 62 9 21 6 36 5 49 -5 22 -16 49 -19
40 -4 -4 6 -11 8 -16 5 -5 -4 -9 -1 -9 4 0 6 17 11 38 11 20 1 47 6 59 13 22
12 22 12 -17 51 -29 28 -48 39 -77 41 -106 10 -144 18 -166 35 -17 13 -49 20
-118 26 l-94 7 -40 55 c-56 78 -266 288 -400 401 -22 19 -69 60 -105 91 -89
79 -151 130 -245 201 -44 33 -88 67 -98 75 -9 8 -22 14 -28 14 -5 0 -7 5 -4
10 3 6 1 10 -4 10 -17 0 -13 37 11 93 12 29 24 54 28 57 3 3 6 17 7 33 1 22
-10 36 -56 71 -31 24 -72 60 -91 80 l-35 37 35 -2 c23 -2 46 -13 68 -33z
m-4623 -12 c6 -17 15 -29 22 -27 10 4 10 -3 1 -29 -6 -18 -15 -38 -20 -44 -5
-7 -6 -25 -3 -41 4 -27 0 -33 -46 -62 -27 -17 -48 -35 -45 -39 5 -8 -35 -41
-99 -83 -53 -33 -66 -43 -103 -77 -23 -21 -42 -30 -54 -26 -10 3 -18 1 -18 -5
0 -6 5 -11 12 -11 6 0 2 -10 -9 -22 -12 -13 -28 -40 -37 -61 -8 -20 -22 -40
-31 -43 -8 -3 -15 -17 -15 -29 0 -33 -10 -55 -25 -55 -9 0 -10 9 -2 40 6 22
15 40 20 40 4 0 6 9 2 19 -4 13 1 27 14 40 11 11 16 21 10 23 -13 4 9 78 26
84 8 3 11 12 8 20 -5 15 8 54 47 139 10 22 26 62 36 89 10 29 26 52 40 58 14
7 20 16 17 28 -4 15 -1 18 16 13 23 -6 28 -19 9 -26 -10 -4 -9 -8 2 -16 31
-22 36 -6 19 59 -3 10 3 15 18 14 12 0 21 4 20 10 -1 6 15 11 36 11 22 0 42 7
47 15 11 17 13 9 10 -32 -1 -16 3 -28 9 -28 6 0 11 -4 11 -10 0 -17 -28 -11
-39 8 -6 9 -10 13 -11 7 0 -26 21 -40 60 -40 45 0 50 7 20 28 -16 11 -20 24
-19 56 3 50 28 53 44 5z m-70 -308 l-30 -14 46 2 c45 1 47 0 45 -26 -2 -31
-35 -62 -50 -47 -6 5 -17 9 -25 9 -11 0 -11 -3 4 -13 17 -13 17 -15 -6 -30
-13 -10 -26 -17 -30 -17 -3 0 -25 -18 -49 -40 -24 -22 -45 -38 -47 -36 -2 2
-18 -10 -34 -25 -17 -16 -37 -29 -45 -29 -8 0 -14 -5 -14 -11 0 -5 -4 -8 -8
-5 -4 2 -27 -13 -50 -35 -24 -21 -47 -39 -51 -39 -28 0 20 138 64 182 96 97
120 109 109 54 -3 -19 -2 -42 4 -51 8 -15 10 -14 14 9 3 15 2 29 -2 31 -10 6
-1 45 11 45 5 0 6 6 3 14 -11 29 85 83 151 85 15 0 12 -4 -10 -13z m6448 -148
c69 -17 91 -20 95 -10 5 16 42 15 42 -2 0 -12 55 -25 185 -42 22 -3 67 -11
100 -19 l60 -15 -55 7 c-30 3 -66 5 -79 4 -41 -2 -80 -68 -51 -86 5 -3 34 -8
62 -10 29 -3 76 -9 103 -15 28 -6 59 -8 70 -6 24 6 66 -21 44 -28 -103 -33
-297 -29 -521 11 l-86 15 -30 67 c-39 84 -48 121 -31 121 8 0 5 6 -7 15 -27
20 -7 19 99 -7z m1734 -48 c26 -6 54 -14 61 -19 7 -4 17 -36 23 -72 6 -35 14
-77 19 -94 8 -29 9 -29 15 -7 11 35 25 26 14 -10 -5 -18 -9 -35 -9 -38 0 -3
-5 2 -10 10 -7 11 -10 -7 -9 -60 1 -41 5 -77 8 -80 4 -3 -4 -16 -16 -29 l-23
-24 -1 94 c-2 103 -2 111 -13 216 -8 68 -9 72 -38 82 -65 23 -802 6 -923 -21
-94 -20 -94 -20 -84 -75 26 -149 49 -290 49 -295 0 -3 -7 -8 -15 -12 -11 -4
-19 9 -30 52 -9 31 -32 110 -51 174 -43 148 -43 151 -1 143 19 -4 46 0 68 9
67 28 194 41 544 56 266 11 370 11 422 0z m-7537 -413 c0 -10 5 -15 10 -12 14
9 67 -31 73 -55 3 -11 -1 -27 -9 -34 -11 -12 -11 -16 0 -25 7 -6 16 -8 19 -5
4 4 11 -6 17 -21 7 -20 8 -31 0 -39 -7 -7 -10 -5 -10 7 0 9 -4 17 -10 17 -5 0
-10 -14 -10 -32 0 -25 3 -29 12 -20 20 20 33 13 34 -18 1 -34 -7 -38 -27 -14
-7 9 -24 20 -37 25 -22 8 -26 36 -5 32 5 -1 10 8 10 20 2 21 1 21 -12 3 -14
-18 -15 -18 -21 -1 -5 11 0 30 9 47 17 29 23 58 11 45 -4 -3 -13 0 -21 8 -8 8
-25 15 -38 15 -13 0 -31 7 -40 16 -23 23 -32 8 -10 -16 10 -11 15 -23 12 -27
-4 -3 -7 -2 -7 4 0 6 -9 13 -20 16 -16 4 -20 14 -20 46 0 38 2 41 26 41 19 0
25 4 20 15 -5 13 -1 12 19 -2 13 -10 25 -26 25 -36z m7396 -38 c-3 -34 -6 -72
-6 -84 0 -21 -6 -22 -167 -33 -252 -18 -271 -18 -295 8 -11 11 -25 19 -31 17
-17 -5 -21 -44 -5 -50 8 -2 8 -4 -2 -3 -12 1 -16 19 -18 85 -2 46 1 88 5 92 5
5 76 12 158 15 83 4 151 7 152 9 2 1 51 3 109 4 l107 2 -7 -62z m-1181 -24
c163 -11 155 -7 229 -96 36 -44 66 -90 66 -101 0 -12 -12 -41 -27 -65 l-28
-45 -208 4 c-261 5 -250 -1 -255 156 -2 61 1 119 7 135 11 28 13 29 69 23 31
-3 98 -8 147 -11z m-4655 -22 c0 -5 -58 -82 -70 -93 -3 -3 -35 -39 -71 -80
-65 -74 -77 -103 -39 -93 25 7 25 1 0 -22 -19 -17 -20 -17 -30 6 -12 25 -23
45 -77 139 -40 69 -36 100 11 100 17 1 81 13 141 29 99 25 135 29 135 14z
m-1084 -288 c15 -71 28 -170 30 -220 2 -49 6 -118 10 -151 7 -78 8 -84 5 -114
l-3 -25 -8 25 c-5 15 -8 18 -9 9 -1 -19 -27 -33 -36 -20 -2 5 -20 12 -40 15
-45 9 -52 22 -26 50 32 34 27 62 -18 90 -21 14 -41 31 -43 38 -3 7 -49 22
-104 34 -108 23 -108 22 -2 56 37 12 45 12 41 1 -3 -7 -9 -11 -13 -8 -5 3 -11
1 -14 -4 -4 -5 6 -8 21 -6 16 2 37 -2 48 -7 18 -9 17 -8 -2 11 -13 12 -23 26
-23 32 0 6 9 5 23 -2 12 -6 19 -8 15 -5 -6 7 8 29 44 67 21 23 42 17 86 -24
38 -37 40 -29 17 73 -9 36 -16 73 -18 83 -1 10 -8 22 -16 27 -11 6 -12 12 -4
22 7 8 8 28 3 56 -4 24 -4 40 1 35 4 -4 20 -66 35 -138z m7759 16 c69 -32 119
-85 158 -165 21 -41 37 -82 37 -90 0 -8 5 -18 11 -21 19 -12 -25 -287 -45
-279 -8 3 -10 25 -6 69 7 79 -1 105 -28 98 -15 -4 -20 0 -19 14 1 10 -4 17
-10 16 -24 -5 -13 5 32 31 39 23 45 31 45 59 0 58 -11 61 -69 22 -60 -39 -76
-45 -43 -14 12 11 19 25 16 31 -4 7 -2 8 4 4 13 -8 17 6 5 18 -12 11 -13 45
-3 51 6 4 14 -3 18 -14 6 -17 9 -18 26 -6 18 13 18 15 -4 44 -23 34 -28 35
-49 22 -11 -7 -27 4 -64 42 -26 29 -52 59 -57 67 -9 13 -11 13 -20 0 -8 -13
-10 -13 -10 3 0 22 24 22 75 -2z m-8543 -36 c21 -4 35 -12 32 -18 -2 -7 19
-21 49 -32 45 -18 52 -24 49 -45 -1 -18 6 -30 25 -43 l28 -18 -40 5 c-140 18
-227 37 -277 61 l-58 27 23 19 c13 10 35 21 50 24 14 4 28 14 31 22 4 10 14
13 29 10 12 -3 39 -9 59 -12z m5726 -204 c15 -12 35 -24 44 -27 10 -4 20 -15
23 -25 5 -14 16 -19 46 -19 21 0 39 -4 39 -10 0 -5 -5 -10 -11 -10 -6 0 -9 -9
-6 -20 3 -11 1 -23 -4 -26 -5 -3 -7 -9 -4 -14 6 -10 -23 -35 -32 -27 -3 4 0
13 7 22 9 11 9 15 1 15 -7 0 -9 5 -5 13 4 6 -1 5 -12 -4 -23 -20 -58 -18 -84
4 -35 30 -20 57 32 57 23 0 20 19 -5 34 -13 8 -20 8 -26 -2 -7 -12 -14 -11
-40 3 -18 9 -41 13 -51 10 -12 -4 -20 -2 -20 4 0 6 -9 11 -19 11 -11 0 -27 3
-35 6 -15 6 -15 8 1 20 28 22 127 13 161 -15z m2702 -170 c0 -21 16 -37 45
-44 19 -4 18 -5 -2 -6 -12 0 -25 4 -28 9 -22 35 -100 -25 -151 -116 -32 -57
-54 -74 -54 -41 0 17 -49 69 -59 63 -4 -3 -14 13 -20 36 -16 52 -8 58 84 58
61 0 77 4 115 29 53 35 70 38 70 12z m-380 -110 c0 -10 7 -38 16 -62 9 -24 17
-51 19 -59 2 -8 4 -17 5 -20 1 -3 2 -8 1 -12 0 -5 3 -8 7 -8 8 0 32 -43 32
-56 0 -3 -12 4 -27 16 l-28 21 -14 -30 c-14 -29 -51 -44 -51 -21 0 5 7 6 17 3
11 -4 14 -3 9 5 -4 7 -2 12 4 12 6 0 8 5 5 10 -5 8 -11 8 -20 0 -9 -8 -14 -7
-18 3 -3 8 -18 13 -36 12 -34 -2 -40 9 -14 24 14 7 13 9 -9 8 -14 -1 -24 -6
-20 -11 3 -5 -5 -7 -16 -4 -12 4 -22 2 -22 -3 0 -15 -37 -10 -55 7 -9 10 -22
13 -33 9 -13 -5 -8 -10 23 -23 22 -8 44 -22 48 -29 5 -8 17 -11 31 -7 13 3 27
1 30 -5 4 -5 13 -8 21 -4 8 3 15 0 15 -7 0 -19 -73 -4 -140 30 -33 17 -60 34
-60 39 0 5 -15 12 -33 15 -19 4 -52 15 -75 26 -23 11 -45 20 -50 20 -6 0 -12
6 -15 14 -6 16 14 16 34 -1 8 -6 24 -14 37 -17 12 -4 22 -12 22 -17 0 -5 7 -9
17 -9 14 0 14 2 -2 20 -10 11 -29 20 -42 20 -12 0 -23 5 -23 10 0 12 3 12 33
1 19 -7 26 -5 37 12 8 12 13 26 12 30 -1 4 6 3 17 -2 10 -6 22 -7 26 -3 10 10
97 11 116 1 11 -5 16 -4 16 7 0 7 -4 14 -9 14 -5 0 -6 5 -3 10 9 14 25 12 23
-2 -2 -9 9 -13 32 -12 21 0 34 6 33 12 -2 7 4 12 12 12 17 0 19 -56 2 -77 -7
-9 -4 -13 7 -13 10 0 15 4 11 9 -3 5 0 13 6 16 5 4 8 13 5 21 -3 8 0 11 9 7
11 -4 14 2 11 26 -2 17 1 31 5 31 5 0 9 -8 9 -19z m494 -853 c-5 -7 -3 -8 6
-3 10 6 12 4 7 -8 -3 -8 10 -55 29 -104 19 -48 38 -108 41 -133 3 -25 16 -59
29 -77 20 -26 24 -44 24 -102 0 -71 14 -102 26 -56 12 49 21 24 10 -27 -15
-64 -65 -112 -170 -162 -154 -74 -236 -95 -236 -61 0 8 5 15 11 15 8 0 8 4 0
14 -6 8 -11 18 -10 22 3 13 -12 140 -31 249 -5 33 -10 64 -10 69 0 6 -5 5 -12
-2 -14 -14 -38 2 -38 24 0 8 -4 14 -10 14 -14 0 -13 -4 9 -42 37 -64 52 -262
31 -398 -15 -95 -17 -99 -79 -164 -31 -33 -48 -56 -38 -53 20 7 23 -3 5 -21
-17 -17 -49 -15 -42 2 5 12 1 13 -23 4 -16 -6 -42 -8 -57 -4 -49 12 -52 35
-32 279 18 235 28 291 54 321 20 22 86 57 127 67 l30 7 -35 1 c-32 1 -33 3
-15 14 11 6 25 12 30 12 6 1 9 7 7 13 -4 19 24 43 42 36 8 -3 17 -13 19 -22 5
-18 -1 23 -10 76 -4 20 -2 32 5 32 19 0 160 87 212 131 26 22 54 54 61 71 l12
30 14 -26 c8 -15 11 -32 7 -38z m-7709 -50 c41 -27 59 -66 50 -107 -9 -40 -32
-46 -89 -22 -46 20 -46 20 -46 70 0 40 4 53 22 65 28 20 22 20 63 -6z m6022
-24 c26 -9 59 -26 72 -38 48 -43 63 -126 23 -126 -15 0 -15 -2 -2 -10 12 -8 9
-10 -10 -6 -14 3 -52 8 -85 11 -78 9 -115 25 -148 64 -31 37 -35 76 -10 103
21 23 94 24 160 2z m-3550 -325 c76 -11 167 -22 203 -23 36 -2 83 -10 105 -19
23 -8 79 -18 125 -21 47 -3 103 -9 125 -15 27 -7 42 -7 46 1 4 7 9 7 13 -1 4
-6 18 -8 31 -5 13 3 97 1 187 -5 89 -6 294 -12 453 -14 249 -3 296 -6 332 -21
23 -10 41 -23 40 -29 -1 -6 9 -13 23 -15 29 -4 78 -49 157 -144 31 -37 61 -64
66 -61 6 3 7 1 4 -4 -4 -6 21 -46 56 -90 68 -84 167 -229 167 -244 0 -5 5 -9
10 -9 6 0 10 -6 10 -14 0 -19 -33 -24 -242 -37 -160 -10 -712 -6 -774 5 -11 2
-77 7 -149 10 -183 10 -235 14 -449 37 -104 11 -202 17 -217 14 -20 -5 -44 0
-72 13 -23 11 -100 32 -172 47 -71 15 -135 28 -141 30 -6 2 -14 23 -18 47 -9
60 -80 345 -111 447 -29 99 -32 119 -11 102 17 -14 29 0 20 23 -8 21 13 21
183 -5z m4578 -54 c23 -22 25 -32 25 -113 0 -118 -24 -282 -54 -371 -44 -131
-87 -175 -213 -220 -152 -54 -474 -94 -758 -95 l-200 -1 -70 34 c-58 29 -97
62 -236 200 -184 183 -289 303 -289 328 0 9 3 13 7 10 3 -4 14 0 24 9 26 23
76 32 264 44 410 26 879 84 1185 147 299 62 284 60 315 28z m931 -102 c4 -20
20 -55 36 -77 35 -48 35 -53 1 -55 -71 -3 -93 -7 -93 -14 0 -5 -4 -6 -9 -3
-10 7 -54 -38 -45 -47 3 -3 -3 -3 -14 0 -13 3 -28 -3 -41 -16 -19 -19 -147
-58 -157 -48 -3 2 22 14 53 25 67 25 156 80 163 102 2 8 5 41 6 73 1 33 9 67
18 82 9 13 16 37 16 52 l1 28 29 -32 c16 -18 32 -49 36 -70z m-2960 -128 c70
-21 152 -84 287 -224 121 -125 190 -219 202 -273 16 -73 -75 -93 -297 -64
-190 25 -239 47 -344 157 -97 103 -236 293 -247 339 -7 28 3 50 24 54 8 2 21
6 29 9 51 21 279 22 346 2z m-4216 -315 c67 -44 132 -122 184 -221 56 -105 91
-200 71 -193 -18 7 -55 -44 -55 -77 0 -16 9 -38 21 -50 20 -20 32 -20 70 -5
13 6 18 -1 23 -26 4 -21 2 -34 -5 -37 -70 -23 -61 -146 11 -153 27 -3 38 -19
39 -56 1 -14 -3 -21 -10 -17 -19 12 -59 -36 -59 -70 0 -35 41 -85 69 -85 13 0
17 -12 19 -62 1 -34 0 -75 -4 -91 -5 -26 -7 -27 -18 -10 -7 10 -16 27 -20 37
-5 16 -4 17 9 6 13 -10 15 -9 15 9 0 12 -4 19 -10 16 -5 -3 -10 -2 -10 4 0 5
5 13 10 16 6 3 10 15 10 26 0 13 -7 19 -24 19 -13 0 -27 6 -29 13 -3 6 -6 -5
-6 -25 -1 -26 -7 -40 -20 -47 -16 -9 -18 -20 -15 -63 2 -29 8 -54 14 -56 5 -2
10 -10 10 -18 0 -8 8 -14 19 -14 10 0 24 -7 31 -15 11 -13 8 -13 -19 -4 -35
12 -55 2 -66 -31 -3 -11 -15 -22 -26 -25 -15 -5 -19 -13 -16 -26 4 -16 1 -19
-14 -14 -14 5 -17 2 -13 -8 3 -9 13 -13 27 -9 12 3 19 1 14 -3 -4 -5 -15 -9
-25 -10 -26 -3 -69 -22 -77 -34 -7 -13 -55 -11 -72 2 -7 5 -10 13 -7 18 3 5 0
9 -5 9 -20 0 -11 70 14 124 24 50 85 138 85 122 0 -4 6 -1 14 7 14 13 11 61
-4 82 -4 6 -11 25 -15 43 -4 18 -13 36 -21 39 -8 3 -14 10 -14 15 0 5 14 -2
31 -16 17 -14 34 -26 39 -26 5 0 15 -2 22 -5 37 -14 51 122 24 224 -24 90 -65
115 -108 66 -22 -25 -22 -25 -30 -5 -12 32 -28 24 -18 -9 4 -15 4 -34 0 -40
-4 -8 -9 -1 -13 18 -6 30 -24 44 -24 19 0 -7 -3 -23 -7 -35 -6 -17 -3 -23 8
-23 9 0 16 -5 16 -11 0 -6 8 -8 19 -4 26 8 43 -17 38 -57 -2 -18 -5 -32 -8
-31 -43 18 -71 26 -101 30 -21 3 -38 10 -38 14 0 5 -8 9 -19 9 -10 0 -31 11
-47 25 -50 44 -55 47 -68 42 -10 -4 -15 13 -18 71 -3 42 -2 86 2 97 13 36 22
132 11 115 -9 -13 -11 -12 -11 6 0 34 22 134 30 134 4 0 8 6 7 13 -1 34 4 57
13 57 5 0 7 -8 4 -17 -5 -15 -3 -15 10 1 9 11 16 29 15 40 0 21 -1 21 -9 1 -5
-11 -9 -14 -9 -7 -2 29 31 80 55 86 14 4 22 11 18 17 -4 8 -9 7 -15 -2 -5 -8
-9 -9 -9 -3 0 6 8 18 17 25 9 8 14 9 10 3 -4 -7 1 -15 10 -18 10 -4 14 -4 10
0 -4 4 3 18 15 32 13 13 22 27 21 30 -2 7 22 8 46 1 7 -2 15 1 18 7 10 29
-141 50 -172 24 -7 -6 -20 -8 -29 -4 -9 3 -16 1 -16 -5 0 -8 -4 -8 -14 1 -16
15 -10 32 9 24 7 -2 23 4 35 14 12 10 29 16 40 13 14 -4 20 0 20 11 0 21 -60
22 -99 2 -28 -15 -70 -58 -103 -106 -9 -14 -17 -20 -17 -14 -1 16 78 104 114
125 48 30 120 25 175 -11z m6495 -370 c20 -22 14 -40 -8 -22 -9 8 -91 -3 -307
-43 -325 -59 -619 -105 -1015 -160 -207 -28 -263 -39 -273 -53 -11 -14 -12
-62 -7 -247 8 -235 13 -275 39 -275 14 0 143 20 571 90 342 56 970 181 984
196 8 9 -21 4 -354 -65 -248 -51 -577 -109 -940 -165 -102 -16 -115 -11 -115
39 0 24 -5 34 -20 38 -11 3 -23 1 -26 -4 -3 -5 -16 -9 -30 -9 -17 0 -24 5 -24
20 0 22 -1 23 -24 14 -9 -3 -16 -15 -16 -25 0 -10 -4 -19 -9 -19 -18 0 -29 94
-12 104 4 3 36 6 70 8 33 1 61 6 61 10 0 4 7 5 15 2 13 -5 15 15 15 150 0 153
0 156 23 161 12 2 137 21 277 40 299 42 522 79 859 141 167 31 247 41 255 35
9 -8 12 -73 12 -250 -1 -132 -4 -242 -7 -246 -11 -10 -686 -144 -957 -190
-464 -77 -635 -103 -647 -98 -28 10 -34 58 -36 303 -1 235 0 253 17 269 15 14
96 28 369 65 353 48 803 121 1080 175 83 16 153 29 156 30 3 1 14 -8 24 -19z
m-4195 -65 c104 -19 260 -57 204 -50 -22 3 -43 3 -46 0 -5 -5 5 -87 17 -140 6
-27 5 -28 -8 -12 -8 9 -18 17 -23 17 -5 0 -15 10 -22 21 -18 28 -34 12 -35
-35 -1 -24 -6 -36 -15 -36 -8 0 -12 6 -8 15 3 8 0 14 -7 12 -7 -1 -11 6 -9 15
1 9 -2 19 -7 22 -5 3 -7 15 -4 25 7 27 -45 131 -66 131 -18 1 -81 28 -66 29 6
0 48 -6 95 -14z m-246 -254 c3 -5 50 -12 103 -17 112 -9 100 -7 178 -19 33 -4
67 -9 75 -10 30 -4 76 -18 117 -36 35 -16 40 -22 35 -41 -3 -12 -7 -17 -9 -11
-2 6 -14 1 -28 -13 -43 -43 -142 -36 -254 18 -47 22 -100 41 -118 41 -20 1
-33 6 -33 14 0 7 -9 13 -20 13 -13 0 -18 5 -14 15 4 10 0 15 -10 15 -9 0 -33
9 -53 20 l-38 20 32 0 c18 0 34 -4 37 -9z m-1876 -858 c16 -22 27 -27 71 -27
28 -1 51 -3 51 -6 0 -3 -9 -20 -20 -38 -11 -18 -20 -39 -20 -46 0 -17 -98 -91
-107 -82 -4 3 4 18 18 32 l24 26 -22 -6 c-17 -6 -23 -3 -23 8 0 10 9 16 25 16
35 0 31 16 -6 29 -24 8 -30 15 -24 28 4 10 7 26 7 36 0 9 4 17 10 17 5 0 0 9
-13 20 -19 15 -21 19 -7 20 9 0 25 -12 36 -27z"/>
<path d="M8500 4648 c313 -146 457 -219 555 -283 57 -38 122 -70 181 -90 51
-17 100 -37 108 -44 8 -7 21 -11 27 -9 11 4 -119 98 -135 98 -4 0 -24 11 -46
25 -39 25 -370 192 -462 234 -26 11 -53 21 -60 21 -8 0 -18 4 -23 8 -16 14
-87 39 -130 45 -36 6 -37 5 -15 -5z"/>
<path d="M8511 4507 c4 -34 -2 -47 -24 -47 -13 0 -28 5 -34 11 -9 9 -16 8 -27
-4 -14 -13 -13 -15 7 -21 12 -3 30 -6 41 -6 10 0 27 -10 37 -22 11 -11 19 -17
19 -13 0 4 8 1 18 -7 9 -9 36 -22 60 -29 23 -7 42 -17 42 -23 0 -6 20 -11 45
-12 25 0 45 3 45 8 0 4 -7 8 -15 8 -8 0 -15 5 -15 10 0 6 -13 10 -30 10 -16 0
-30 3 -30 6 0 9 28 34 38 34 6 0 12 4 14 8 2 4 14 2 28 -5 18 -9 20 -13 8 -13
-21 0 -23 -7 -5 -24 13 -13 32 -3 34 19 1 5 10 12 20 16 14 6 13 8 -9 8 -33 1
-59 11 -54 20 3 4 -9 8 -26 9 -17 1 -38 7 -48 12 -10 6 -30 10 -44 10 -16 0
-26 6 -26 14 0 9 -7 12 -20 9 -11 -3 -20 -1 -20 5 0 5 -7 13 -15 16 -9 3 -15
1 -14 -7z"/>
<path d="M9536 3993 c28 -31 59 -77 57 -85 -1 -3 19 -28 45 -55 44 -45 51 -49
85 -45 28 3 47 -2 75 -20 48 -31 101 -53 109 -44 22 21 -154 216 -195 216 -10
0 -29 7 -42 17 -14 9 -19 10 -12 3 20 -23 14 -30 -15 -16 -16 8 -41 18 -58 24
-16 5 -39 13 -49 18 -19 7 -19 7 0 -13z"/>
<path d="M8167 5294 c-4 -4 -7 -60 -7 -124 0 -87 4 -120 14 -129 11 -9 306
-32 306 -23 0 1 -9 6 -21 10 -19 8 -19 9 13 51 l33 44 -68 66 c-77 74 -76 77
28 81 l50 2 -45 8 c-71 12 -295 22 -303 14z"/>
<path d="M9950 3252 c-75 -37 -85 -61 -104 -258 -20 -201 -20 -294 -2 -319 12
-16 17 -17 45 -6 17 8 31 17 31 22 0 5 7 9 15 9 21 0 76 41 69 52 -3 5 0 7 8
6 15 -4 58 77 58 110 0 22 -1 22 -16 7 -9 -9 -18 -14 -20 -13 -1 2 -6 86 -9
187 -4 138 -3 187 6 198 10 12 10 16 -2 24 -18 11 -15 12 -79 -19z"/>
<path d="M9649 3176 c-3 -3 -27 -8 -54 -11 -28 -4 -129 -22 -225 -40 -335 -64
-634 -99 -1170 -135 -190 -13 -230 -22 -230 -53 0 -46 391 -442 485 -490 22
-11 66 -26 97 -32 99 -21 383 -2 682 46 65 10 123 16 129 12 5 -3 7 -1 4 4 -8
13 35 25 57 17 9 -3 16 -1 16 5 0 6 7 8 15 5 8 -4 15 -1 15 6 0 6 5 8 11 5 28
-18 131 50 159 104 24 48 64 180 56 188 -3 4 -6 -1 -6 -10 0 -9 -4 -17 -10
-17 -5 0 -7 -7 -4 -15 4 -11 2 -13 -8 -10 -12 5 -14 15 -6 53 41 215 45 252
25 252 -14 0 -41 83 -28 88 5 1 17 9 27 17 18 14 18 14 -7 15 -14 0 -28 -2
-30 -4z m-59 -295 c0 -13 -32 -23 -270 -89 -118 -33 -224 -63 -234 -68 -14 -5
-17 -4 -12 4 7 11 -48 10 -112 -2 -12 -3 -20 -1 -17 4 3 4 -1 11 -7 14 -7 4
-3 4 9 2 13 -2 25 0 28 4 3 4 14 6 25 3 11 -3 28 -2 37 2 10 5 22 7 26 6 5 -1
6 3 2 9 -3 5 0 10 9 10 8 0 17 -5 19 -10 3 -6 4 -5 3 2 -1 7 -16 16 -32 19
l-29 7 32 1 c17 0 35 -4 38 -10 5 -7 11 -5 18 5 14 17 260 62 278 50 7 -4 9
-3 5 4 -4 7 14 13 51 17 32 4 69 10 83 15 34 11 50 12 50 1z m-672 -143 c-3
-20 -11 -24 -63 -30 -112 -12 -641 -21 -659 -11 -12 6 27 10 121 12 76 1 232
6 347 11 173 7 211 12 218 24 14 25 40 20 36 -6z"/>
<path d="M7364 2940 c-55 -22 -29 -85 116 -270 150 -193 189 -219 351 -235 84
-9 210 -12 227 -7 7 2 12 21 12 44 0 43 -41 115 -107 189 -28 31 -33 41 -18
36 19 -7 19 -6 3 7 -10 7 -18 17 -18 22 0 5 -8 18 -17 29 -15 20 -15 20 -10
-4 l6 -23 -25 23 c-13 12 -24 28 -24 35 0 6 -10 15 -22 18 -13 4 -45 27 -73
52 -27 26 -38 39 -23 30 16 -11 29 -13 32 -7 4 5 -3 12 -14 16 -11 3 -20 10
-20 15 0 4 -18 15 -40 24 -31 12 -74 16 -178 15 -75 0 -146 -4 -158 -9z"/>
<path d="M9824 2137 c-3 -8 -20 -71 -38 -141 l-33 -127 51 3 c49 3 51 2 54
-24 5 -39 32 -37 32 2 0 17 6 39 12 50 10 16 10 24 0 40 -6 11 -12 36 -12 55
0 24 -5 35 -14 35 -11 0 -16 -14 -18 -47 -3 -44 -5 -48 -31 -51 -24 -3 -28 0
-24 15 15 51 47 184 47 193 0 15 -20 12 -26 -3z"/>
<path d="M9630 2111 c-22 -6 -27 -17 -43 -90 -9 -46 -15 -86 -12 -89 3 -3 21
0 41 6 31 9 38 8 55 -9 23 -23 24 -57 3 -87 -19 -27 -50 -28 -66 -2 -17 27
-38 25 -38 -3 0 -36 27 -67 59 -67 67 0 114 116 76 189 -15 31 -33 41 -70 41
-20 0 -22 3 -16 27 5 18 17 30 37 36 30 10 44 24 44 45 0 13 -29 14 -70 3z"/>
<path d="M9422 2057 c-31 -33 -43 -79 -31 -121 6 -22 6 -43 -1 -61 -34 -89 14
-170 81 -135 42 23 64 114 38 161 -7 14 -7 35 -1 64 13 62 -13 115 -57 115 -4
0 -17 -11 -29 -23z"/>
<path d="M9147 2019 c-36 -21 -47 -63 -47 -177 0 -95 3 -113 21 -136 28 -35
64 -34 99 4 31 33 47 100 36 145 -5 20 -13 25 -36 25 -27 0 -30 -3 -30 -30 0
-21 5 -30 16 -30 24 0 14 -59 -13 -77 -19 -13 -24 -12 -42 6 -18 18 -21 33
-21 104 0 59 5 89 16 105 19 27 40 28 56 2 18 -28 48 -26 48 3 0 50 -59 82
-103 56z"/>
<path d="M9007 2003 c-4 -7 -16 -60 -33 -141 -8 -41 -27 -18 -43 53 -12 50
-21 71 -34 73 -11 2 -17 -3 -17 -15 0 -35 72 -323 81 -323 5 0 9 1 9 3 0 5 59
308 65 335 4 15 1 22 -9 22 -8 0 -17 -3 -19 -7z"/>
<path d="M8710 1957 c-44 -22 -60 -71 -60 -180 0 -111 14 -153 56 -163 35 -9
70 9 94 48 18 29 20 47 18 146 -3 111 -4 114 -31 138 -32 27 -42 29 -77 11z
m60 -66 c5 -11 10 -59 10 -107 0 -89 -13 -124 -46 -124 -33 0 -44 30 -44 121
0 102 10 129 45 129 14 0 29 -8 35 -19z"/>
<path d="M4034 6928 c3 -35 5 -76 5 -92 1 -23 4 -27 13 -18 21 21 28 13 28
-33 0 -39 -2 -44 -14 -33 -8 7 -10 15 -5 16 15 6 10 29 -6 29 -11 0 -15 -11
-15 -38 0 -62 6 -69 62 -69 l49 0 -5 50 c-3 29 -1 50 4 50 6 0 10 -11 10 -24
0 -14 5 -28 10 -31 6 -3 10 -1 10 5 0 6 4 9 8 6 4 -2 6 10 4 29 -2 18 1 36 7
39 7 4 11 -2 11 -16 -1 -13 1 -34 3 -48 3 -14 5 -33 6 -42 1 -11 6 -15 16 -12
8 4 15 2 15 -3 0 -5 9 -9 20 -9 12 0 20 7 20 16 0 9 3 19 6 23 11 11 34 -5 34
-24 0 -16 6 -19 38 -16 20 1 41 7 45 12 6 6 10 6 14 -2 2 -7 18 -13 34 -13
l29 0 0 76 c0 56 3 75 13 72 8 -3 13 -30 15 -77 2 -55 7 -73 19 -78 9 -4 21 1
29 12 12 16 14 16 14 3 0 -12 13 -17 56 -20 31 -1 58 1 61 5 3 4 11 3 19 -4 8
-6 14 -8 14 -3 0 5 5 2 10 -6 9 -13 13 -11 31 10 12 14 16 26 10 28 -6 2 -11
10 -11 18 0 25 19 5 28 -28 7 -29 10 -30 72 -34 80 -4 99 5 78 35 -8 11 -17
19 -20 16 -2 -3 -2 17 2 43 3 26 4 72 3 102 -1 30 -2 74 -2 98 l-1 42 -210 0
c-203 0 -210 -1 -210 -20 0 -11 -5 -20 -11 -20 -6 0 -13 9 -16 20 -5 19 -14
20 -230 20 l-224 0 5 -62z"/>
<path d="M6772 6955 c-1 -19 3 -35 8 -35 6 0 10 11 10 25 0 16 4 23 14 19 16
-6 17 -125 1 -136 -6 -5 -2 -8 8 -8 9 0 17 -7 17 -15 0 -12 16 -15 84 -15 l84
0 6 31 c3 17 6 62 6 100 l0 69 -118 0 -119 0 -1 -35z"/>
<path d="M7273 6978 c-5 -7 -7 -45 -5 -85 l4 -72 66 0 c37 0 72 5 79 10 7 6
16 8 21 6 19 -12 30 12 36 81 l7 72 -99 0 c-68 0 -102 -4 -109 -12z"/>
<path d="M7519 6955 c-1 -19 -1 -47 -2 -62 -1 -25 3 -29 41 -34 32 -4 42 -2
44 10 2 12 14 15 46 13 33 -3 42 0 42 12 0 9 5 16 10 16 6 0 10 18 10 40 l0
40 -95 0 -95 0 -1 -35z"/>
<path d="M7810 6881 c0 -116 2 -121 54 -121 19 0 22 4 19 23 -4 17 4 29 34 50
l38 27 13 -27 c14 -25 13 -28 -18 -53 l-32 -26 68 -13 c38 -7 79 -15 92 -18
l22 -5 0 136 0 136 -35 0 -35 0 0 -59 c0 -84 -11 -181 -21 -181 -5 0 -9 54 -9
120 0 78 -4 120 -11 120 -6 0 -26 -12 -46 -27 -34 -26 -36 -26 -49 -8 -8 10
-14 22 -14 27 0 4 -16 8 -35 8 l-35 0 0 -109z"/>
<path d="M9685 6953 c0 -37 -1 -38 -40 -44 l-40 -6 40 -3 c38 -3 39 -3 8 -7
-18 -2 -33 -8 -33 -13 0 -5 -6 -7 -14 -4 -10 4 -15 -5 -18 -30 -5 -42 2 -43
95 -25 53 11 56 13 51 35 -15 58 26 67 47 11 11 -30 14 -32 55 -28 39 3 44 6
39 22 -5 14 -1 19 14 19 15 0 21 -6 21 -21 0 -21 3 -22 63 -16 66 7 114 15
135 22 7 3 10 0 7 -5 -3 -6 0 -10 7 -10 9 0 14 21 16 71 l3 70 -38 -3 c-31 -2
-37 -7 -35 -22 2 -11 -1 -15 -8 -11 -6 4 -9 13 -6 21 4 11 -7 14 -54 14 -33 0
-59 -3 -59 -7 1 -5 0 -17 -1 -28 -2 -17 -3 -16 -9 5 -7 25 -8 25 -126 28
l-120 3 0 -38z"/>
<path d="M899 6776 c-2 -2 -40 -7 -84 -9 -188 -13 -238 -36 -82 -38 122 -2
208 -7 225 -14 11 -4 13 1 8 20 -7 28 -11 27 89 25 38 -1 67 2 63 6 -8 7 -212
17 -219 10z"/>
<path d="M3619 281 c25 -34 27 -51 6 -51 -8 0 -12 6 -9 13 2 7 -4 21 -15 32
-20 17 -21 17 -30 -6 -10 -27 -7 -34 8 -24 6 3 9 11 6 16 -4 5 -2 9 3 9 15 0
22 -28 9 -33 -7 -3 0 -8 15 -12 31 -8 51 1 42 18 -4 7 7 -1 24 -17 18 -17 32
-32 32 -35 0 -2 -3 -1 -7 2 -9 9 -33 -12 -33 -29 0 -8 9 -14 21 -14 13 0 18 4
13 12 -4 7 -3 8 5 4 14 -9 5 -26 -15 -26 -8 0 -14 -4 -14 -10 0 -12 32 -28 47
-23 6 2 14 -1 17 -6 8 -13 -38 -26 -56 -16 -7 4 -2 -3 11 -14 27 -25 43 -27
35 -6 -4 8 -1 15 5 15 6 0 11 -4 11 -10 0 -5 7 -7 15 -4 11 4 15 0 15 -16 0
-16 -4 -20 -16 -16 -21 8 -34 -1 -27 -19 7 -20 67 -20 87 0 8 8 19 15 25 15
19 0 12 17 -9 23 -12 3 -24 -1 -29 -11 -13 -22 -25 -9 -16 17 6 20 35 30 35
13 0 -5 6 -9 13 -9 21 0 9 74 -14 80 -10 3 -19 1 -19 -5 0 -11 -42 14 -75 44
-20 19 -20 19 7 13 19 -5 39 0 70 19 33 20 38 26 22 26 -12 0 -27 -7 -34 -15
-14 -17 -35 -21 -25 -5 3 6 2 10 -4 10 -5 0 -13 -4 -16 -10 -3 -5 -11 -10 -17
-10 -7 0 -6 5 1 14 15 18 -1 30 -29 21 -11 -4 -20 -2 -20 4 0 6 -6 11 -13 11
-18 0 -58 35 -50 44 3 3 -1 6 -11 6 -16 0 -15 -3 3 -29z"/>
<path d="M3060 281 c0 -6 4 -12 9 -16 17 -10 39 -63 31 -75 -5 -8 -10 -8 -14
-2 -8 14 -96 -77 -96 -99 0 -12 -7 -19 -20 -19 -27 0 -37 -28 -17 -48 15 -14
17 -14 23 1 5 13 9 14 24 5 10 -7 17 -15 14 -19 -2 -4 7 -6 20 -5 25 1 25 16
0 16 -19 0 -18 10 3 26 10 7 15 15 12 19 -4 3 -14 -1 -23 -10 -16 -16 -36 -13
-36 6 0 6 4 7 10 4 6 -3 7 1 4 9 -3 9 -1 16 5 16 6 0 11 -6 11 -12 0 -10 2
-10 8 0 13 19 41 4 35 -18 -3 -11 -3 -27 1 -35 5 -13 10 -13 39 4 24 14 38 16
51 9 22 -13 31 -4 14 13 -7 8 -23 27 -36 43 -12 16 -22 23 -22 16 0 -7 8 -19
18 -26 16 -12 16 -14 -3 -28 -11 -8 -22 -12 -25 -10 -2 3 2 9 9 14 12 7 12 11
-2 24 -9 9 -14 23 -11 31 4 8 1 15 -6 15 -7 0 -10 -8 -7 -20 3 -13 0 -20 -10
-20 -19 0 -14 50 7 67 17 14 31 17 29 6 -5 -32 31 -48 47 -21 5 7 2 9 -8 5
-19 -7 -30 32 -16 57 7 13 4 16 -14 16 -17 0 -19 3 -10 12 9 9 7 17 -10 35
-22 24 -38 30 -38 14z"/>
<path d="M3500 205 c0 -8 4 -15 8 -15 4 0 6 -16 4 -35 -3 -23 0 -35 8 -35 8 0
10 9 6 26 -6 22 -4 25 9 20 9 -3 21 -6 26 -6 5 0 9 -10 9 -22 1 -21 2 -22 14
-5 17 22 22 22 29 -3 4 -17 2 -20 -14 -15 -13 4 -19 2 -19 -9 0 -9 -7 -16 -16
-16 -8 0 -13 -4 -10 -9 4 -5 2 -11 -4 -13 -6 -2 -6 -9 0 -18 8 -12 11 -12 28
3 18 16 20 16 26 2 4 -11 2 -14 -6 -9 -8 5 -9 2 -5 -9 4 -10 1 -17 -6 -18 -7
0 -3 -4 8 -9 24 -10 41 -12 32 -4 -3 3 6 18 20 31 13 14 21 28 16 32 -5 3 -14
19 -21 35 -11 25 -11 28 3 23 8 -4 15 -3 16 1 5 43 3 60 -6 55 -5 -2 -2 2 8
10 9 8 17 17 17 21 0 12 -31 6 -36 -7 -6 -18 -44 -19 -44 -1 0 8 -4 14 -10 14
-13 0 -13 -16 0 -40 7 -13 7 -21 -1 -25 -6 -4 -13 2 -16 13 -3 11 -11 18 -18
16 -7 -3 -15 4 -18 15 -6 24 -37 29 -37 6z"/>
<path d="M3421 153 c-7 -13 -10 -14 -11 -4 0 10 -5 8 -17 -6 -10 -11 -27 -25
-39 -31 -19 -10 -20 -8 -16 20 5 30 4 30 -15 12 -11 -11 -17 -25 -15 -33 4
-10 0 -13 -10 -9 -8 4 -21 2 -29 -3 -11 -7 -10 -9 5 -9 18 0 18 -2 -4 -25 -13
-14 -18 -25 -12 -25 7 0 11 -3 11 -8 -4 -23 4 -32 25 -32 27 0 44 16 24 22 -6
2 -13 14 -15 27 -2 13 1 20 7 16 6 -3 7 1 4 9 -4 11 0 16 10 16 9 0 16 -7 16
-15 0 -8 5 -15 11 -15 5 0 7 -5 4 -10 -4 -6 -10 -8 -15 -5 -5 3 -11 1 -15 -5
-4 -6 4 -10 19 -10 13 0 27 6 30 13 3 6 4 0 3 -15 -4 -24 -2 -26 14 -17 11 5
19 14 19 19 0 5 12 11 28 13 25 4 25 4 -5 6 -45 2 -84 21 -81 40 5 22 30 20
43 -4 6 -13 18 -19 32 -17 23 3 54 32 34 32 -6 0 -11 5 -11 10 0 18 22 10 27
-10 3 -11 12 -20 19 -20 18 0 18 15 1 32 -8 7 -11 20 -9 28 4 12 3 13 -10 2
-13 -10 -16 -9 -21 8 -6 25 -23 26 -36 3z"/>
</g>
</svg>
